<svg width="26" height="24" viewBox="0 0 26 24" fill="none" xmlns="http://www.w3.org/2000/svg">
<g clip-path="url(#clip0_40_530)">
<path d="M19.3435 8.52478L26 4.16559L19.2593 0L19.3435 8.52478Z" fill="#B8860B"/>
<path d="M3.1892 14.7848V9.64608C3.1892 9.22966 3.18107 8.81179 3.18994 8.39465C3.19216 8.30406 3.19659 8.2142 3.20324 8.12361C3.2195 7.90591 3.17294 8.26461 3.21137 8.05421C3.24684 7.86281 3.303 7.67871 3.35842 7.49242C3.36285 7.47781 3.43675 7.2769 3.37763 7.42155C3.41015 7.34192 3.45227 7.26156 3.49217 7.18559C3.57493 7.0256 3.66878 6.87291 3.76411 6.72023C3.88825 6.52006 4.1491 6.2629 4.38704 6.0452C4.59616 5.8538 4.77942 5.71937 5.11639 5.54989C5.40236 5.40597 5.71937 5.28397 6.09476 5.22552C6.73543 5.12544 7.71749 5.15685 8.47418 5.14151C10.2255 5.10644 11.9775 5.12179 13.7296 5.1437C15.727 5.16854 17.7251 5.20142 19.7225 5.18169C20.3639 5.17512 20.9787 4.62866 20.9492 3.96898C20.9196 3.31733 20.4097 2.74969 19.7225 2.75627C15.9457 2.79352 12.1697 2.63865 8.3929 2.71755C7.44852 2.73727 6.43763 2.69125 5.50877 2.87242C4.57326 3.05506 3.69243 3.48389 2.95421 4.07272C1.57829 5.17146 0.74549 6.78817 0.735883 8.54222C0.724799 10.6228 0.735883 12.7034 0.735883 14.784C0.735883 15.4181 1.2997 16.026 1.96254 15.9967C2.62686 15.9675 3.1892 15.4642 3.1892 14.784V14.7848Z" fill="#B8860B"/>
<path d="M6.65647 15.4753L0 19.8345L6.74071 24.0001L6.65647 15.4753Z" fill="#B8860B"/>
<path d="M22.8108 9.21592V14.3546C22.8108 14.771 22.8189 15.1889 22.81 15.606C22.8078 15.6966 22.8034 15.7865 22.7967 15.8771C22.7805 16.0948 22.827 15.7361 22.7886 15.9465C22.7531 16.1379 22.697 16.322 22.6416 16.5083C22.6371 16.5229 22.5632 16.7238 22.6224 16.5791C22.5898 16.6588 22.5477 16.7391 22.5078 16.8151C22.425 16.9751 22.3312 17.1278 22.2359 17.2805C22.1117 17.4806 21.8509 17.7378 21.6129 17.9555C21.4038 18.1469 21.2206 18.2813 20.8836 18.4508C20.5976 18.5947 20.2806 18.7167 19.9052 18.7752C19.2646 18.8752 18.2825 18.8438 17.5258 18.8592C15.7745 18.8942 14.0224 18.8789 12.2704 18.857C10.273 18.8321 8.27487 18.7993 6.27749 18.819C5.63608 18.8256 5.02127 19.372 5.05083 20.0317C5.08039 20.6834 5.59026 21.251 6.27749 21.2444C10.0543 21.2072 13.8303 21.362 17.6071 21.2831C18.5515 21.2634 19.5624 21.3094 20.4912 21.1283C21.4267 20.9456 22.3076 20.5168 23.0458 19.928C24.4217 18.8292 25.2545 17.2125 25.2641 15.4585C25.2752 13.3779 25.2641 11.2973 25.2641 9.21665C25.2641 8.58254 24.7003 7.97472 24.0374 8.00394C23.3731 8.03316 22.8108 8.53651 22.8108 9.21665V9.21592Z" fill="#B8860B"/>
</g>
<defs>
<clipPath id="clip0_40_530">
<rect width="26" height="24" fill="white"/>
</clipPath>
</defs>
</svg>
