<svg width="41" height="24" viewBox="0 0 41 24" fill="none" xmlns="http://www.w3.org/2000/svg">
<g clip-path="url(#clip0_40_519)">
<path d="M34.4381 8.4374L41.0001 4.12285L34.3545 0L34.4381 8.4374Z" fill="#B8860B"/>
<path d="M34.4381 24L41.0001 19.6854L34.3545 15.5618L34.4381 24Z" fill="#B8860B"/>
<path d="M1.91401 5.16268C2.27507 5.01401 2.65504 4.9029 3.03107 4.80039C3.45913 4.6838 3.8935 4.58678 4.33023 4.50775C4.4469 4.48662 4.56357 4.46706 4.68025 4.44906C4.72833 4.44124 4.77721 4.43498 4.8253 4.42715C5.06968 4.38881 4.90255 4.49523 4.77642 4.43263C4.83555 4.46236 5.09569 4.39507 5.16428 4.38803C5.32588 4.3716 5.48828 4.35751 5.65067 4.34656C6.28212 4.30274 6.91594 4.29883 7.54817 4.33873C7.72082 4.34969 7.89346 4.36377 8.06531 4.38099C8.12917 4.38725 8.19223 4.39585 8.25609 4.40211C8.58797 4.43498 7.96125 4.3536 8.29314 4.40603C8.65498 4.46393 9.01525 4.52731 9.37236 4.61182C9.70976 4.69163 10.044 4.78631 10.3727 4.89429C10.5596 4.9561 10.744 5.02183 10.9277 5.09304C11.0121 5.1259 11.0964 5.15876 11.1808 5.19398C10.8993 5.07739 11.2683 5.23701 11.3235 5.26205C12.085 5.61495 12.8126 6.04844 13.4795 6.55626C13.3029 6.42246 13.5174 6.58834 13.5592 6.62277C13.6411 6.68928 13.7231 6.75657 13.8035 6.82543C13.9683 6.96628 14.1291 7.11103 14.2868 7.25892C14.6518 7.60321 14.9971 7.96784 15.3218 8.34891C16.0913 9.2511 16.8315 10.1783 17.5977 11.0836C18.8567 12.5711 20.1393 14.0406 21.4968 15.4405C23.4101 17.4131 25.5409 19.3739 28.073 20.5328C30.6193 21.6987 33.3453 21.9334 36.11 21.6243C36.7879 21.5484 37.4525 21.0813 37.4186 20.3254C37.3894 19.6869 36.8384 18.9452 36.11 19.0265C34.9046 19.1611 33.6867 19.219 32.4774 19.1056C32.3418 19.093 32.1857 19.0946 32.0548 19.0586C32.0698 19.0625 32.3954 19.111 32.1747 19.0735C32.0998 19.061 32.0241 19.0508 31.9484 19.0383C31.6741 18.9929 31.4021 18.9373 31.1325 18.8716C30.602 18.7425 30.088 18.5703 29.5795 18.3724C29.4833 18.3348 29.3186 18.3137 29.6426 18.3998C29.5716 18.381 29.4959 18.3356 29.4289 18.3051C29.3099 18.2511 29.1908 18.1948 29.0734 18.1369C28.8085 18.0062 28.5476 17.8661 28.2914 17.7174C27.7435 17.4005 27.2169 17.0461 26.71 16.6682C26.6611 16.6314 26.613 16.5946 26.5641 16.5586C26.8432 16.7675 26.5854 16.5743 26.535 16.5344C26.4104 16.4365 26.2867 16.3364 26.1645 16.2362C25.883 16.0046 25.6063 15.7667 25.3344 15.5234C24.7352 14.9874 24.1574 14.4287 23.5937 13.8559C22.2504 12.4913 20.9844 11.0523 19.7436 9.59617C18.3656 7.97801 17.1137 6.17911 15.4574 4.82465C12.9001 2.7331 9.72947 1.6572 6.41771 1.71432C4.69522 1.74405 2.82453 1.99523 1.21713 2.65642C0.564401 2.92481 0.0992897 3.51792 0.303466 4.25423C0.472956 4.86612 1.25655 5.43185 1.91323 5.16111L1.91401 5.16268Z" fill="#B8860B"/>
<path d="M0.638597 20.1542C2.08123 20.842 3.67128 21.2043 5.2503 21.4046C8.37207 21.8013 11.6223 21.1933 14.2955 19.5125C16.1292 18.3592 17.5024 16.759 18.9648 15.1972C20.3381 13.7309 21.7318 12.2817 23.1934 10.9022C23.7807 10.3482 24.3782 9.80519 24.9947 9.28328C25.2619 9.05637 25.5323 8.83415 25.8067 8.61584C25.8705 8.56497 26.2828 8.25355 26.0171 8.44995C26.1732 8.33493 26.3277 8.21756 26.4846 8.10332C26.997 7.73321 27.526 7.38344 28.0731 7.06576C28.3269 6.91865 28.5847 6.77781 28.8472 6.64557C28.9805 6.57828 29.1145 6.51333 29.2493 6.45073C29.2982 6.42804 29.3462 6.40613 29.3951 6.38422C29.433 6.36701 29.7491 6.23164 29.5307 6.32319C29.3179 6.41239 29.5607 6.31145 29.593 6.29893C29.6781 6.26607 29.7625 6.23321 29.8476 6.20112C29.9801 6.15183 30.1141 6.10488 30.2481 6.06106C30.5374 5.9656 30.8299 5.88188 31.1255 5.80989C31.4195 5.73868 31.7159 5.68 32.0139 5.63227C32.0849 5.62131 32.1669 5.59784 32.2386 5.5994C32.0904 5.59784 31.9666 5.6307 32.1921 5.60801C32.3442 5.59314 32.4964 5.57749 32.6493 5.56576C33.2816 5.51959 33.917 5.52272 34.55 5.56185C34.8858 5.58297 35.2216 5.61427 35.5559 5.65339C35.6134 5.66044 35.6702 5.66826 35.7277 5.67452C35.9981 5.70504 35.4274 5.62836 35.7719 5.68156C35.965 5.7113 36.1574 5.74025 36.3497 5.77233C37.0222 5.88501 37.7916 5.59706 37.9595 4.86544C38.1037 4.23712 37.7671 3.38814 37.0458 3.26764C34.6241 2.86231 32.1456 2.75512 29.7711 3.48595C27.2012 4.27702 24.9915 5.8584 22.9782 7.58688C21.6538 8.72382 20.4043 9.94604 19.1847 11.1925C18.4303 11.964 17.6869 12.7465 16.9506 13.5345C16.1922 14.3467 15.4686 15.2011 14.6574 15.9617C14.4713 16.1362 14.2813 16.3052 14.0858 16.4687C14.0165 16.5266 13.9463 16.583 13.8762 16.6401C13.5427 16.914 14.0646 16.5125 13.7193 16.7614C13.3401 17.0345 12.953 17.2935 12.547 17.5258C12.1978 17.7262 11.8375 17.8999 11.4725 18.0705C11.2431 18.1776 11.4134 18.0971 11.4631 18.0767C11.3567 18.1205 11.2487 18.162 11.1415 18.2027C10.9294 18.2817 10.7158 18.3553 10.4998 18.4226C10.1513 18.5305 9.79815 18.6229 9.44103 18.6988C9.2676 18.7356 9.09417 18.7684 8.91916 18.7982C8.83324 18.8122 8.74573 18.8216 8.66059 18.8388C8.56126 18.8529 8.59201 18.849 8.75125 18.8271C8.68345 18.8357 8.61566 18.8435 8.54707 18.8514C7.86675 18.9257 7.18091 18.9453 6.49664 18.9155C6.13716 18.8999 5.77926 18.867 5.42215 18.8287C5.36618 18.8224 5.30706 18.8169 5.25109 18.8075C5.6618 18.878 5.26843 18.8075 5.18329 18.7942C5.02405 18.7692 4.8656 18.7418 4.70714 18.7113C4.18133 18.6111 3.66025 18.4844 3.14784 18.331C2.78048 18.2207 2.41706 18.0978 2.05995 17.9562C2.0024 17.9335 1.94643 17.9077 1.88888 17.8866C2.37764 18.0665 2.17268 18.0071 2.05758 17.9562C2.02447 17.9413 1.99215 17.9273 1.95983 17.9116C1.32286 17.608 0.546363 17.7379 0.169544 18.3772C-0.164706 18.9453 -0.000734229 19.849 0.638597 20.1542Z" fill="#B8860B"/>
</g>
<defs>
<clipPath id="clip0_40_519">
<rect width="41" height="24" fill="white"/>
</clipPath>
</defs>
</svg>
