<svg width="131" height="77" viewBox="0 0 131 77" fill="none" xmlns="http://www.w3.org/2000/svg">
<path d="M17.536 31.576C18.688 32.984 20.0107 34.5413 21.504 36.248C22.9973 37.9547 24.5333 39.6827 26.112 41.432C27.6907 43.1387 29.2693 44.824 30.848 46.488C32.4267 48.1093 33.8773 49.56 35.2 50.84C36.5653 52.0773 37.76 53.08 38.784 53.848C39.808 54.616 40.5547 55 41.024 55H29.504C29.7173 54.9147 29.824 54.7653 29.824 54.552C29.824 54.2533 29.632 53.784 29.248 53.144C28.9067 52.504 28.2453 51.5653 27.264 50.328C26.3253 49.0907 25.1947 47.7253 23.872 46.232C22.592 44.696 21.2907 43.2027 19.968 41.752C18.688 40.3013 17.4933 38.9573 16.384 37.72C15.3173 36.4827 14.4853 35.5013 13.888 34.776C13.2907 34.008 12.8427 33.4107 12.544 32.984C12.288 32.5573 12.16 32.152 12.16 31.768C12.16 31.7253 12.16 31.5973 12.16 31.384C12.2027 31.1707 12.3947 30.8507 12.736 30.424C13.12 29.9973 13.6533 29.4427 14.336 28.76L26.88 16.28C28.2027 14.9573 29.2053 13.8907 29.888 13.08C30.6133 12.2693 31.104 11.672 31.36 11.288C31.616 10.904 31.744 10.6267 31.744 10.456C31.744 10.456 31.7227 10.4133 31.68 10.328C31.6373 10.2427 31.488 10.2 31.232 10.2H35.776C35.392 10.2 35.008 10.264 34.624 10.392C34.2827 10.4773 33.856 10.6907 33.344 11.032C32.8747 11.3733 32.2773 11.8853 31.552 12.568C30.8267 13.2507 29.9093 14.1467 28.8 15.256L18.112 26.008C17.344 26.6907 16.7893 27.2667 16.448 27.736C16.1067 28.1627 15.936 28.568 15.936 28.952C15.936 29.2933 16.064 29.656 16.32 30.04C16.6187 30.424 17.024 30.936 17.536 31.576ZM10.56 38.488C10.56 40.024 10.56 41.752 10.56 43.672C10.6027 45.592 10.6667 47.4053 10.752 49.112C10.88 50.776 11.072 52.184 11.328 53.336C11.584 54.4453 11.968 55 12.48 55H3.52C4.032 55 4.416 54.4453 4.672 53.336C4.928 52.2267 5.09867 50.8613 5.184 49.24C5.312 47.576 5.376 45.8053 5.376 43.928C5.41867 42.008 5.44 40.28 5.44 38.744V26.456C5.44 24.92 5.41867 23.2133 5.376 21.336C5.376 19.416 5.312 17.6453 5.184 16.024C5.09867 14.36 4.928 12.9733 4.672 11.864C4.416 10.7547 4.032 10.2 3.52 10.2H12.48C11.968 10.2 11.584 10.776 11.328 11.928C11.072 13.0373 10.88 14.4453 10.752 16.152C10.6667 17.816 10.6027 19.608 10.56 21.528C10.56 23.448 10.56 25.176 10.56 26.712V38.488Z" fill="#586E48"/>
<path d="M107.544 10.2C111 10.2 114.029 10.84 116.632 12.12C119.235 13.4 121.389 15.0853 123.096 17.176C124.845 19.2667 126.147 21.656 127 24.344C127.896 27.032 128.344 29.784 128.344 32.6C128.344 35.3733 127.917 38.104 127.064 40.792C126.211 43.4373 124.909 45.8267 123.16 47.96C121.453 50.0507 119.299 51.7573 116.696 53.08C114.136 54.36 111.128 55 107.672 55H90.52C91.032 55 91.416 54.4453 91.672 53.336C91.928 52.184 92.0987 50.776 92.184 49.112C92.312 47.4053 92.376 45.592 92.376 43.672C92.376 41.752 92.376 40.024 92.376 38.488V26.712C92.376 25.176 92.376 23.448 92.376 21.528C92.376 19.608 92.312 17.816 92.184 16.152C92.0987 14.4453 91.928 13.0373 91.672 11.928C91.416 10.776 91.032 10.2 90.52 10.2H107.544ZM97.56 49.816C97.56 50.4987 97.5813 51.1387 97.624 51.736C97.6667 52.2907 97.7947 52.76 98.008 53.144C98.264 53.528 98.6267 53.8267 99.096 54.04C99.608 54.2533 100.333 54.3813 101.272 54.424H107.608C111.021 54.424 113.859 53.3573 116.12 51.224C118.381 49.048 120.067 46.3387 121.176 43.096C122.328 39.8533 122.904 36.3547 122.904 32.6C122.904 28.8453 122.328 25.3467 121.176 22.104C120.024 18.8613 118.317 16.1733 116.056 14.04C113.795 11.864 110.957 10.776 107.544 10.776H97.56V49.816Z" fill="#586E48"/>
<line x1="65.5" x2="65.5" y2="72" stroke="#586E48"/>
</svg>
