<svg width="76" height="157" viewBox="0 0 76 157" fill="none" xmlns="http://www.w3.org/2000/svg">
<g clip-path="url(#clip0_51_1275)">
<path d="M75.9289 151.582C70.9593 145.52 66.6489 138.178 65.0948 130.419C63.5668 122.806 63.5069 114.907 63.065 107.158C65.1022 108.099 68.1319 104.967 69.027 103.54C69.701 102.463 69.3228 100.968 69.0981 99.8274C69.0719 99.6994 69.0382 99.5752 69.012 99.4509C69.1206 99.0217 69.203 98.5849 69.3041 98.167C69.4239 97.6851 69.5812 96.8379 70.0343 96.6346C70.319 96.9095 70.6186 97.1354 70.9331 97.286C71.053 97.3425 71.1803 97.3086 71.2852 97.2333C71.5585 97.0375 71.611 96.9471 71.6522 96.7099C72.8093 95.8101 73.049 92.9448 73.1427 91.8982C73.4535 88.3627 70.45 86.9697 68.0121 85.0118C64.7877 82.429 61.9902 79.3717 58.8594 76.6797C57.2341 75.2829 55.5227 73.9726 53.8637 72.6172C52.8975 71.8303 51.8339 71.1036 50.8078 70.3506C50.4707 70.0607 50.1187 69.7859 49.748 69.5374C49.4933 69.334 49.2424 69.127 49.0027 68.9123C48.9728 68.886 48.9316 68.9387 48.9578 68.9651C49.0327 69.0441 49.1151 69.1194 49.1937 69.1947C48.9053 69.0291 48.6095 68.8747 48.2987 68.7429C49.9202 68.6714 51.3957 69.2173 53.021 69.4395C54.9722 69.7068 56.9607 69.688 58.9231 69.5938C60.7656 69.5035 62.8403 69.4395 64.5293 68.6149C65.0386 68.3664 65.4018 67.9937 65.6602 67.5532C65.7052 67.5419 65.7539 67.5306 65.7988 67.523C65.8625 67.3988 65.9224 67.2745 65.9748 67.1465C65.9336 67.1541 65.8962 67.1578 65.8587 67.1654C66.574 65.4447 66.0385 62.8995 65.7726 61.3671C65.3569 58.965 64.6791 56.2014 62.0726 55.4409C59.2264 54.6088 55.6762 56.7436 53.1559 58.5057C53.3506 58.3099 53.5453 58.1103 53.7401 57.9183C56.7323 54.9251 59.3987 51.6193 61.8778 48.1931C64.136 45.0719 66.2182 41.8226 68.102 38.4566C68.1806 38.3173 68.2592 38.178 68.3341 38.0387C69.6861 35.8173 71.1541 33.6147 72.0229 31.1712C72.5247 29.7518 73.0827 28.4039 73.4273 27.0259C74.0826 25.949 74.5208 24.1757 74.15 23.0236C74.034 22.6659 73.7905 22.4099 73.476 22.2254C73.4947 22.2066 73.5097 22.184 73.5171 22.1614C74.2811 19.9776 75.1424 17.455 75.1537 15.0529C75.648 13.9159 75.3896 12.7449 73.6482 11.7246C71.1279 10.2524 67.9971 10.0792 64.9899 10.1621C59.1328 9.8571 53.4779 11.3782 47.8043 12.6433C41.7899 13.9836 35.652 14.8421 29.851 16.9844C24.0688 19.1192 18.3166 21.6343 12.9126 24.6087C10.3473 26.0206 8.04795 27.7036 5.89835 29.6991C5.74106 29.8459 5.56504 29.9965 5.38529 30.1584C3.41919 31.751 1.74145 33.6449 2.98103 34.9589C3.11959 35.1019 3.26939 35.23 3.42293 35.3504C5.01828 38.4943 7.61353 41.047 10.0178 43.6374C10.1676 43.8219 10.3136 44.0101 10.4597 44.1946C13.1298 47.5757 15.961 50.904 19.0693 53.8859C22.0803 56.7737 25.432 59.3039 28.7463 61.8265C31.7909 64.142 34.9854 66.4575 38.5169 67.9485C38.3221 67.9786 38.1311 68.0125 37.9439 68.0464C34.5772 67.9711 31.2816 68.3928 27.8475 69.1834C25.6155 69.6993 23.4247 70.4146 21.35 71.3822C20.088 71.9696 18.9457 72.7565 18.6536 74.1835C18.3203 75.81 19.9644 77.8845 20.6123 79.2249C21.4062 80.8665 22.1776 82.4365 23.6943 83.5096C26.5854 85.554 31.4763 82.7791 34.3525 81.1225C33.772 81.4727 33.1953 81.8266 32.6672 82.2144C30.8172 83.5773 29.0197 85.0156 27.252 86.484C25.608 87.8507 24.0202 89.2739 22.4847 90.7611C21.8106 91.4125 15.8674 97.0149 17.3317 98.4908C17.1369 98.7619 16.9459 99.0405 16.7737 99.3229C15.2944 101.721 18.3765 105.799 20.6909 106.461C18.1818 109.447 15.7213 112.448 13.3583 115.573C8.752 121.669 5.10067 129.805 6.00695 137.621C6.21292 139.41 6.26161 141.567 6.98438 143.246C7.04804 143.371 7.10796 143.499 7.16039 143.627C7.17163 143.687 7.18286 143.747 7.1941 143.807C7.23155 143.374 7.3027 142.945 7.39632 142.52C7.43003 141.669 7.60979 140.807 7.7858 140.008C8.7857 135.456 11.6468 132.328 14.4331 128.841C14.8787 130.825 15.7326 132.749 16.6838 134.718C17.9047 137.256 19.1592 139.726 20.0393 142.414C20.7171 144.496 20.5823 146.642 21.0205 148.736C21.0542 148.901 21.2339 148.777 21.2489 148.668C21.7694 144.289 21.9829 139.967 22.2713 135.569C22.3424 134.462 22.451 133.348 22.6083 132.237C22.5858 132.523 22.5746 132.809 22.5671 133.092C22.6757 131.311 22.9454 129.572 23.5633 127.964C23.7992 127.301 24.1063 126.654 24.4471 126.025C24.3759 126.179 24.316 126.337 24.2486 126.495C24.4583 126.119 24.6942 125.758 24.9564 125.404C25.2148 124.884 25.4882 124.372 25.7803 123.864C26.1922 123.242 26.6079 122.632 27.0049 122.034C27.0386 121.981 27.0311 121.925 27.0049 121.887C27.6265 120.946 28.2744 120.027 28.9223 119.127C30.791 116.537 32.6822 113.973 34.4798 111.349C36.0265 112.576 40.2882 113.867 41.4604 111.789C41.6476 111.458 41.8274 111.115 42.0071 110.765C42.5726 109.974 43.8834 109.858 44.7672 109.891C45.8457 109.933 46.7482 111.123 47.2276 112.019C47.2351 112.049 47.2351 112.079 47.2426 112.105C47.8343 114.703 52.2196 114.293 53.7925 113.073C53.8262 113.047 53.8524 113.009 53.8674 112.968C53.785 114.308 53.7101 115.648 53.6502 116.989C53.0135 131.413 56.4589 146.123 66.3605 156.955C66.4766 157.079 66.6489 156.861 66.5778 156.74C63.8514 151.91 62.0501 146.496 61.9228 140.927C62.5182 141.744 63.0275 142.644 63.6567 143.427C64.7427 144.779 66.1096 145.893 67.4466 146.977C68.7985 148.073 70.274 149.033 71.6934 150.038C72.8805 150.878 74.1912 151.857 75.6256 152.196C75.9514 152.275 76.1049 151.785 75.9326 151.575L75.9289 151.582Z" fill="#4B1E0A"/>
<path d="M55.7473 74.9367C58.2901 77.1995 60.8105 79.4472 63.226 81.8531C65.282 83.9013 67.4278 85.8366 69.7497 87.5836C71.1915 88.6679 72.2288 89.4774 72.4086 91.4089C72.4835 92.241 72.285 95.1363 71.4012 96.2206C71.39 96.2319 71.375 96.2432 71.3638 96.2621C71.0829 96.6875 67.7536 92.3464 67.469 91.9849C66.0085 90.1288 64.4131 88.3818 62.8215 86.6385C62.7953 86.6122 62.7616 86.6611 62.7803 86.6875C64.5929 88.9051 66.177 91.2809 67.821 93.6265C68.3453 94.372 68.9595 95.43 69.6785 96.2545C69.3752 96.4503 69.1168 96.8381 68.9558 97.2109C68.8359 97.497 68.7311 97.8057 68.6487 98.122C68.1394 96.5407 67.4091 95.0083 66.7125 93.5286C66.5927 93.2726 66.2819 93.5851 66.368 93.7997C67.4241 96.4767 68.3004 98.9993 68.4876 101.891C68.6037 103.668 65.1172 107.301 63.0537 106.921C63.0238 106.409 62.9938 105.901 62.9601 105.389C62.4695 97.9639 61.713 90.573 59.1814 83.5286C58.0505 80.381 56.545 77.3463 54.5489 74.6618C53.8711 73.7507 53.1633 72.8094 52.3918 71.9321C53.4929 72.9525 54.6276 73.9389 55.7511 74.9329L55.7473 74.9367Z" fill="white"/>
<path d="M60.8854 68.777C57.9531 69.1045 54.8635 69.161 51.9612 68.5586C51.0512 68.3703 49.6843 67.8206 48.7405 68.1746C48.3998 68.3026 48.0927 68.4381 47.7219 68.5059C47.9541 67.783 48.4185 67.3011 49.1263 67.0563C49.4409 66.902 49.7629 66.7664 50.0962 66.6572C52.7926 65.6444 56.0469 66.3334 58.8032 66.6873C60.8555 66.9509 62.7204 67.7792 64.7128 67.6851C63.7578 68.5435 62.1287 68.6414 60.8854 68.777Z" fill="white"/>
<path d="M61.8253 56.4988C64.0348 56.8339 64.6827 59.91 65.0722 61.6871C65.398 63.1668 65.6826 64.6766 65.4766 66.1939C65.4167 66.6194 65.2819 66.9733 65.0871 67.2632C64.1547 67.3347 63.3495 67.2331 62.3271 66.9018C61.5781 66.6608 60.8217 66.465 60.0502 66.3182C57.9643 65.9228 55.8034 65.7986 53.6913 65.6706C52.2158 65.584 48.7292 66.0923 47.5421 67.6623C47.5346 67.5493 47.5196 67.4364 47.4971 67.3272C47.9989 66.3521 48.6356 65.727 49.4932 64.9326C50.4706 64.029 51.815 63.7052 52.8524 62.8957C52.8898 62.8656 52.8636 62.7978 52.8149 62.8279C51.3207 63.7843 49.6317 64.1645 48.1899 65.2715C47.8379 65.5388 47.396 65.9642 47.1114 66.4349C46.8755 66.1111 46.5422 65.8551 46.1152 65.7308C46.4111 64.6276 47.9765 63.6224 48.7592 62.9672C49.9538 61.9733 51.1971 61.0358 52.4405 60.1095C54.9421 58.2496 58.5672 55.9981 61.8216 56.4913L61.8253 56.4988Z" fill="white"/>
<path d="M44.5274 69.5826C44.4787 69.4583 44.4825 69.3115 44.4188 69.191C44.3102 68.9914 44.0818 68.7844 43.9057 68.6488C43.6436 68.4417 43.3477 68.3401 43.0369 68.2836C42.6849 68.0652 42.2954 67.9222 41.876 67.8393C41.9059 67.7301 41.9996 67.6247 42.1531 67.5306C42.2542 67.4365 42.3591 67.3536 42.4714 67.2746C42.7148 67.0901 43.0332 66.9734 43.3103 66.8529C44.1155 66.4952 45.0367 66.2279 45.9018 66.5215C46.3849 66.6872 46.677 66.9508 46.8231 67.267C46.8081 67.4591 46.8418 67.6511 46.9317 67.8356C46.9054 68.871 45.8306 70.0984 44.7072 70.3243C44.6959 70.2678 44.6809 70.2189 44.666 70.1699C44.7746 69.9817 44.5911 69.7595 44.5274 69.5938V69.5826Z" fill="white"/>
<path d="M72.3149 26.9617C71.3712 28.3096 69.9556 29.3563 68.8172 30.5536C68.6898 30.6515 68.555 30.7419 68.4239 30.836C68.1506 28.9421 68.1131 27.0521 68.0944 25.1357C68.0869 24.5972 67.8922 22.9745 68.0307 21.7734C68.3341 22.3947 69.3377 22.7072 70.5061 22.8277C71.0828 22.8879 71.6558 22.903 72.2288 22.9933C74.1425 23.2983 72.974 26.0204 72.3187 26.9617H72.3149Z" fill="white"/>
<path d="M74.9102 15.5233C74.5095 17.7635 73.2812 19.8004 73.2474 22.1009C72.5958 21.8072 71.7607 21.7432 71.1915 21.6905C70.7908 21.6528 70.39 21.6114 69.9931 21.5587C68.7722 21.4043 69.6748 20.2635 70.1317 19.8155C70.9555 19.006 71.9442 18.3546 72.8542 17.6506C73.6856 17.0067 74.4458 16.2763 74.9102 15.5195V15.5233Z" fill="white"/>
<path d="M9.36611 27.3572C9.36611 27.3572 9.36985 27.3271 9.35487 27.3308C11.4595 25.8737 13.8226 24.7292 16.1145 23.6298C21.0616 21.2502 26.2184 19.1455 31.4014 17.3421C36.899 15.4256 42.831 14.7065 48.5008 13.4452C51.2234 12.839 53.9385 12.199 56.6798 11.6681C59.5859 11.1033 62.7279 11.5966 65.5441 10.6779C65.6078 10.6591 65.6639 10.6026 65.7089 10.5386C67.8248 10.7118 69.9182 11.0619 71.9105 11.8676C72.6445 12.1651 73.3411 12.6094 73.9403 13.1252C75.5768 14.522 73.1651 16.0544 72.3524 16.7171C71.1091 17.7223 69.8096 18.6034 68.7348 19.8044C68.2667 20.3278 68.027 20.7645 67.9558 21.1335C67.7274 21.8225 67.7911 22.7939 67.7686 23.2871C67.6413 25.757 67.4877 28.562 68.2592 30.9528C65.4917 32.9408 62.2972 34.379 59.2563 35.9114C57.9868 36.5515 55.3204 37.7751 55.4477 39.0026C55.2979 40.309 55.5488 41.5252 55.8559 42.8166C56.2491 44.4845 56.6161 46.3369 57.4176 47.8693C56.2154 48.5583 54.9609 49.1269 53.9984 49.6013C51.2946 50.9341 48.4297 51.5855 45.4637 52.0034C43.4189 52.2933 40.7113 52.7865 38.7527 51.9431C36.6256 51.0282 39.2321 48.4529 38.4756 46.9469C38.0037 46.0056 36.1799 46.2729 35.3673 46.3181C30.0008 46.6043 24.6418 47.1991 19.3164 46.1487C18.9232 46.0696 18.53 45.9755 18.1368 45.8663C17.1219 44.0892 16.0059 42.2782 14.6989 40.7006C13.6653 39.4544 12.4782 37.8316 10.9615 37.1125C10.778 36.9318 10.557 36.7699 10.2836 36.6306C8.52724 35.7307 6.30274 35.8361 4.45274 35.1095C0.606673 33.5997 8.28756 28.2194 9.36985 27.3572H9.36611Z" fill="white"/>
<path d="M55.5302 39.3037C55.6949 39.6388 56.0919 39.9701 56.8109 40.2864C58.616 41.0771 62.4246 41.7623 61.0128 44.62C60.3874 45.8888 59.0354 46.9205 57.5786 47.7751C57.0094 46.3444 56.6724 44.7217 56.3091 43.2307C55.987 41.9204 55.5901 40.6478 55.5302 39.3037Z" fill="white"/>
<path d="M12.5381 41.7512C12.4594 41.5893 12.3883 41.4199 12.3209 41.2467C11.8378 39.9552 11.9838 38.517 11.2686 37.4854C12.5156 38.404 13.4781 39.8724 14.4368 41.017C15.6689 42.4891 16.8148 44.1571 17.8484 45.7911C16.3579 45.3431 14.9386 44.6503 13.8601 43.5961C13.4369 43.0275 13.0212 42.4515 12.6242 41.8604C12.6317 41.8717 12.6467 41.8604 12.643 41.8491C12.613 41.77 12.6317 41.8001 12.5381 41.755V41.7512Z" fill="white"/>
<path d="M19.9418 53.92C16.8897 51.2543 14.1784 48.1594 11.5494 45.0834C10.8866 44.3115 10.22 43.5284 9.5571 42.7415C7.8906 40.569 6.40386 38.2234 4.71863 36.0698C5.55001 36.4086 6.46003 36.6082 7.30264 36.7776C8.54222 37.0299 10.6057 37.1767 11.336 38.4079C11.9164 39.3943 11.9351 40.7648 12.3658 41.8379C12.5268 42.237 12.7291 42.6059 12.9613 42.9448C14.654 46.6421 18.1742 49.2325 20.8668 52.1617C20.8931 52.1881 20.9268 52.1391 20.908 52.1128C23.0277 54.1873 25.2709 56.1602 27.5928 58.1331C27.7126 58.2348 27.8624 58.0277 27.7613 57.926C25.2409 55.4147 22.4098 53.2347 19.8258 50.7912C18.1068 48.7392 16.3317 46.7588 14.6877 44.6654C17.0807 46.3597 20.5485 46.932 23.1513 47.2784C25.6791 47.6097 28.2369 47.5758 30.776 47.4742C32.7683 47.3913 35.5021 46.7551 37.4607 47.3838C38.2209 47.6285 37.1461 49.6993 37.0188 50.234C37.0076 50.2754 37.0038 50.3131 36.9963 50.3545C36.9851 50.3771 36.9739 50.3959 36.9776 50.426C36.9776 50.4335 36.9776 50.4411 36.9776 50.4486C36.9327 50.7987 36.9926 51.1263 37.0975 51.4463C37.6629 55.554 39.0636 59.1497 40.4754 63.0616C40.4866 63.0993 40.5278 63.0691 40.5241 63.039C40.2095 61.0962 39.5729 59.2137 39.0935 57.3123C38.7115 55.7875 38.3445 54.225 37.9214 52.6888C38.7602 53.2799 40.1009 53.3665 40.966 53.3552C46.0104 53.295 50.9613 52.2709 55.4739 49.9855C57.3314 49.0442 59.2301 47.9147 60.7431 46.4727C60.7805 46.435 60.8217 46.3974 60.8592 46.356C59.9117 48.1745 58.601 49.8914 57.3913 51.3372C56.2791 52.6625 55.0882 53.9049 54.0097 55.2604C52.8562 56.7137 51.4743 58.4607 49.9801 59.5488C49.9651 59.5601 49.9763 59.5864 49.9951 59.5751C51.5942 58.536 52.9161 56.9584 54.2868 55.6369C55.6911 54.2852 57.0992 52.926 58.365 51.4388C59.9229 49.6052 61.6905 47.0864 62.1324 44.5487C62.4246 43.9049 62.5481 43.2234 62.2897 42.6398C61.6943 41.2882 60.215 40.8175 58.8856 40.4523C57.9718 40.2001 57.0618 40.0645 56.1967 39.6428C54.4965 38.8107 56.6423 37.6398 57.0356 37.4327C57.792 37.0374 58.5673 36.6872 59.3537 36.3559C64.0162 34.383 68.8059 32.6548 72.1951 28.8145C72.1839 28.8596 72.1689 28.901 72.1539 28.9462C71.7944 29.8498 71.4049 30.7346 71.0529 31.5893C70.42 33.1292 69.6748 34.6202 68.9295 36.1112C68.6337 36.6421 68.3378 37.1692 68.0457 37.6887C66.0721 41.1903 63.8177 44.5261 61.4321 47.7566C58.8893 51.1941 56.0656 54.7709 52.9124 57.9373C52.3169 58.6527 51.6765 59.3342 50.9425 59.9516C49.9464 60.7875 49.0813 61.661 48.2312 62.6474C47.6957 63.2687 47.1527 63.8749 46.5347 64.4095C46.2389 64.8086 46.0142 65.2416 45.9992 65.7122C45.9767 65.7085 45.958 65.6972 45.9355 65.6934C44.5125 65.4148 42.8609 66.1189 41.8872 67.1731C41.7187 67.3538 41.5989 67.5684 41.5652 67.7905C40.8349 67.6927 40.041 67.7416 39.2508 67.8433C39.2583 67.7529 39.2283 67.6625 39.1385 67.6098C32.4949 63.3703 25.9076 59.1384 19.9418 53.9275V53.92Z" fill="white"/>
<path d="M23.5333 82.3237C23.4172 82.1844 23.3161 82.0338 23.2524 81.8643C22.3948 80.9833 21.8369 79.6844 21.3313 78.664C20.2902 76.5744 18.0357 74.0669 20.9418 72.35C24.0351 70.5202 27.8924 69.7822 31.3827 69.1836C34.5247 68.6451 37.9514 68.2197 41.1945 68.4192C41.2694 68.4343 41.348 68.4494 41.4229 68.4644C41.4791 68.4832 41.5353 68.4983 41.5915 68.5171C40.4642 68.6527 39.3183 69.1911 38.382 69.6692C36.15 70.8138 34.667 72.7792 32.8695 74.4396C32.8395 74.466 32.862 74.53 32.9032 74.4998C35.8055 72.0525 38.9663 68.7129 43.1269 69.1083C43.1606 69.1271 43.198 69.1421 43.2317 69.1647C43.2842 69.2212 43.3329 69.2777 43.3741 69.3379C43.4153 69.4019 43.449 69.4659 43.4827 69.5299C43.5426 69.5939 43.595 69.6542 43.6437 69.7182C43.6512 69.7257 43.6624 69.7295 43.6699 69.737C43.6774 69.7596 43.6886 69.7822 43.6999 69.8048C43.7523 69.8839 43.7935 69.9667 43.816 70.0458C43.8347 70.0796 43.8609 70.106 43.8834 70.1399C42.1382 70.1851 40.7301 72.6512 39.8501 73.792C37.6593 76.6271 35.094 78.8109 31.5737 79.7333C29.2181 80.3508 25.99 80.2039 23.964 81.6309C23.6532 81.8493 23.5371 82.094 23.5445 82.3274L23.5333 82.3237Z" fill="white"/>
<path d="M33.8693 80.9081C32.1841 81.7967 30.1244 82.7756 28.0834 83.073C27.2295 83.2914 26.3607 83.4119 25.5106 83.2989C25.3084 83.2726 25.0912 83.2236 24.874 83.1558C24.7354 81.9171 25.1623 81.2771 26.1622 81.2583C26.6266 81.1566 27.0947 81.0775 27.5666 81.0173C28.6901 80.8516 29.7873 80.6709 30.8958 80.4149C32.5361 80.0346 34.1539 79.5225 35.577 78.585C36.9364 77.689 38.1386 76.6234 39.2059 75.3923C40.2694 74.1648 41.9809 70.6445 43.902 70.6859C43.8871 70.8026 43.8683 70.9193 43.8346 71.0474C43.7111 71.518 43.5575 71.9698 43.4789 72.4404C43.3066 72.8245 43.1044 73.1934 42.8797 73.5549C42.7299 73.7093 42.5763 73.8599 42.4265 74.0218C41.715 74.7861 41.0709 75.588 40.4492 76.4201C40.4305 76.4465 40.423 76.4804 40.423 76.5105C38.5168 78.3177 36.135 79.707 33.8618 80.9043L33.8693 80.9081Z" fill="white"/>
<path d="M18.3052 103.054C17.9495 102.486 17.6723 101.812 17.4514 101.187C17.0507 100.065 18.1892 98.9201 18.7359 98.0918C20.3725 95.6069 23.2186 93.3968 25.6828 91.7364C25.7128 91.7138 25.6978 91.646 25.6566 91.6686C22.8067 93.2386 19.9081 95.2341 17.8371 97.8245C17.7772 95.8403 23.5107 90.765 24.402 89.9178C26.0985 88.2989 27.8549 86.7439 29.6375 85.2153C31.0493 84.0029 32.4949 82.832 33.9479 81.6723C34.7493 81.0285 35.6556 80.524 36.457 79.8877C38.5767 78.5887 40.7038 77.0036 42.2467 75.0646C43.0556 74.289 43.8121 73.4494 44.2315 72.4893C44.2428 72.4629 44.2577 72.4253 44.269 72.3989C44.1042 72.975 43.8795 73.5473 43.7559 73.9577C43.4076 75.1399 42.9957 76.3108 42.5725 77.4667C41.7898 79.6015 40.5016 81.5707 39.2582 83.4532C36.7941 87.1693 34.1164 90.7349 31.3452 94.2289C28.4728 97.8471 25.2072 101.13 22.2225 104.654C21.7693 105.189 21.3199 105.727 20.8668 106.262C20.863 106.243 20.8556 106.228 20.8406 106.213C19.8856 105.279 19.013 104.187 18.309 103.054H18.3052Z" fill="white"/>
<path d="M26.1959 122.716C26.106 122.862 26.0236 123.013 25.9337 123.16C23.8478 126.134 22.4959 129.233 21.9566 132.949C21.32 137.328 21.6907 141.774 21.1627 146.164C21.1514 146.251 21.1514 146.556 21.1514 146.895C21.1102 146.277 21.0241 145.66 20.9567 145.05C20.6946 142.667 19.8744 140.396 18.9831 138.194C17.6537 134.907 15.6726 131.755 14.8075 128.371C14.8337 128.322 14.8337 128.273 14.8262 128.228C14.8225 128.213 14.815 128.201 14.8112 128.186C14.7963 128.152 14.7738 128.126 14.7438 128.107C14.7363 128.073 14.7288 128.039 14.7214 128.002C14.5341 128.205 14.3132 128.491 14.0622 128.634C11.6992 131.07 9.38481 133.514 8.20889 136.816C7.62094 138.465 7.08166 140.362 7.06294 142.2C5.54623 135.777 6.37012 129.146 9.30991 123.107C12.7253 116.097 18.0282 110.377 23.0614 104.511C28.1507 98.5776 33.5322 92.9827 37.8914 86.4428C39.7751 83.6189 41.7674 80.8742 42.977 77.6701C43.4975 76.2846 43.8758 74.8237 44.1791 73.3779C44.2952 72.8282 44.5124 72.2183 44.5461 71.6309C44.5948 71.4766 44.636 71.3184 44.6697 71.1641C45.1978 72.2672 45.3213 74.1573 45.415 75.0421C45.5797 76.631 45.5872 78.2575 45.5048 79.8501C45.3326 83.2462 44.7746 86.6498 43.9694 89.948C42.449 96.2018 39.5728 102.26 36.2735 107.749C33.169 112.915 29.3342 117.58 26.1996 122.716H26.1959Z" fill="white"/>
<path d="M53.6951 112.678C52.5079 112.828 51.4743 113.096 50.2497 112.979C48.0964 112.776 47.8605 111.108 48.0365 109.259C48.3361 106.096 48.3248 102.798 48.0889 99.6318C48.0852 99.5678 48.0028 99.5904 48.0028 99.6469C47.9691 101.985 47.7181 104.304 47.4635 106.627C47.3362 107.791 47.1115 109.048 47.0852 110.276C46.4673 109.651 45.6135 109.225 44.842 109.267C44.0181 109.312 42.8684 109.647 42.2318 110.321C43.7635 107.188 44.9094 103.536 45.5311 100.223C45.5423 100.155 45.4599 100.151 45.4412 100.212C44.6136 103.288 43.5013 106.172 42.1382 109.044C41.3854 110.63 40.7675 111.955 38.7565 111.853C37.3896 111.785 35.798 111.887 34.5509 111.251C36.3073 108.687 37.9738 106.066 39.4456 103.303C42.3104 97.9262 44.4638 92.1355 45.4862 86.1152C45.9955 83.1144 46.3288 79.9894 46.134 76.9434C46.0479 75.6106 45.8756 74.338 45.4899 73.0541C45.2727 72.335 45.1379 71.5255 44.7222 70.9005C44.7222 70.8967 44.7222 70.8892 44.7222 70.8854C45.591 70.8402 46.5984 69.9216 47.0328 69.3756C47.074 69.3229 47.1077 69.2664 47.1452 69.21C47.3511 69.4208 47.5796 70.027 47.7593 70.3169C48.1938 71.0172 48.4184 71.8568 48.8004 72.5872C49.8677 74.6392 50.7366 76.8041 51.4519 79.0029C52.8412 83.2725 53.6427 87.8057 54.122 92.2598C54.856 99.1122 54.298 105.957 53.8786 112.798C53.8561 112.723 53.7999 112.67 53.6988 112.682L53.6951 112.678Z" fill="white"/>
<path d="M71.5921 148.822C70.2589 147.81 68.9108 146.819 67.645 145.724C66.4878 144.722 65.4017 143.668 64.4206 142.493C63.4768 141.364 62.8889 139.997 61.7879 139.003C61.4096 138.664 60.9153 139.112 60.9153 139.534C60.9153 143.796 61.9227 147.892 63.6117 151.782C64.0461 152.779 64.5442 153.747 65.0497 154.711C65.2145 155.02 65.3905 155.328 65.5628 155.633C63.9525 153.822 62.5481 151.834 61.2898 149.76C56.4626 141.789 54.6313 132.369 54.4066 123.145C54.298 118.702 54.7511 114.338 55.1406 109.922C55.575 105.019 55.6761 99.8839 55.384 94.9704C55.0919 90.0758 54.1894 85.3205 52.9723 80.5803C51.8712 76.2994 49.819 72.4628 47.3062 68.9048C47.3286 68.8558 47.3548 68.8107 47.3736 68.7617C47.4747 68.7994 47.602 68.8069 47.7218 68.7918C47.7855 68.7843 47.8492 68.7843 47.9128 68.7768C50.9762 70.1924 53.0621 73.5095 54.6874 76.3295C56.6535 79.7369 58.2302 83.2309 59.3574 87.0148C61.5594 94.4094 61.874 102.222 62.2522 109.88C62.6267 117.474 62.6717 125.437 64.6453 132.825C66.499 139.771 70.9293 145.242 74.8016 151.096C73.6444 150.502 72.5771 149.568 71.5921 148.819V148.822Z" fill="white"/>
<path d="M43.6249 7.53755C43.55 7.34553 43.4639 7.15351 43.359 6.95396C42.8834 6.05034 41.7524 5.22579 40.8686 4.77398C39.2358 3.93813 36.5919 4.03603 35.0115 5.13543C34.7644 5.15049 34.521 5.18814 34.2738 5.24838C33.1128 5.53453 32.3414 6.29131 31.8059 7.23634C30.7123 7.70698 29.7349 8.40352 28.7799 9.11512C28.031 9.67611 27.4505 10.4818 27.413 11.4457C27.3906 12.0067 27.413 12.6016 27.4917 13.1889C26.4618 15.3877 25.8214 18.2191 27.1509 20.3727C27.84 21.4872 28.9972 22.0067 30.218 22.0933C31.0007 23.2869 32.0306 24.1491 33.4349 24.5068C34.9816 24.8983 36.7155 24.183 38.1049 23.5429C38.4419 23.7086 38.7864 23.8592 39.1497 23.9985C40.3106 24.4503 41.5278 24.8381 42.7636 24.5181C45.2989 23.8629 46.4336 20.4744 46.6583 18.1475C46.752 18.0647 46.8493 17.9856 46.9429 17.8953C47.8829 17.0067 49.0439 15.5346 49.1412 14.1754C49.3547 11.1219 45.9768 8.93439 43.6249 7.52625V7.53755Z" fill="#4B1E0A"/>
<path d="M34.6894 5.65132C36.5582 5.39153 38.322 6.17466 39.981 6.97286C38.4456 6.75825 36.7267 7.06699 35.6219 7.68822C35.2811 7.66563 34.9441 7.6694 34.6145 7.71081C34.0303 7.78235 33.6408 8.11368 33.3824 8.55043C32.596 8.85916 31.8245 9.1679 31.2029 9.63477C31.7871 7.92919 32.8432 5.91111 34.6932 5.65132H34.6894Z" fill="white"/>
<path d="M43.5538 9.91309C43.8422 10.4025 44.1343 10.892 44.3814 11.4078C44.8645 12.4093 44.9357 13.4221 44.9432 14.5178C44.9507 15.9334 44.7559 17.0818 43.6811 18.0682C42.6737 18.9907 40.3032 19.8265 39.3333 18.3958C40.2096 18.4109 40.8949 18.2 41.5128 17.3002C42.0671 16.4944 42.3854 15.6511 42.5689 14.7587C43.6736 13.313 44.0931 11.5773 43.5538 9.92062V9.91309Z" fill="white"/>
<path d="M31.5288 19.3939C30.2031 17.8577 30.3528 16.1409 30.4203 14.3374C30.4502 14.4165 30.4802 14.4955 30.5064 14.5708C30.8771 15.5611 31.3265 16.3931 32.1167 17.0859C32.3452 17.7071 32.6822 18.2794 33.1129 18.6974C33.6334 19.2056 34.3375 19.5144 35.0715 19.6876C35.7006 20.3992 36.4609 21.1296 37.3222 21.6153C36.5133 21.5362 35.6969 21.5701 34.8917 21.4157C33.5772 21.1635 32.3938 20.3992 31.5288 19.3939Z" fill="white"/>
<path d="M41.288 11.3857C41.3329 11.3706 41.3667 11.3443 41.3741 11.3066C42.1456 11.7961 42.2168 12.5077 42.1419 13.4942C42.0632 14.5559 41.8086 15.5198 41.318 16.4648C40.2581 18.5055 37.4794 18.4038 35.7455 17.2178C36.5656 17.2743 37.4008 17.0484 37.97 16.4912C37.9775 16.4836 37.9812 16.4761 37.9812 16.4686C38.3258 16.2276 38.6291 15.8963 38.9474 15.58C39.262 15.2675 39.5316 14.955 39.7788 14.6312C39.8125 14.6425 39.8574 14.6312 39.85 14.5898C39.85 14.5785 39.8425 14.5634 39.8425 14.5521C40.2731 13.9761 40.6326 13.3699 41.0371 12.7035C41.1832 12.4588 41.2918 12.2253 41.3367 12.0032C41.3629 11.9919 41.3854 11.9655 41.3891 11.9354C41.4004 11.7246 41.3629 11.5438 41.288 11.3895V11.3857Z" fill="white"/>
<path d="M33.1054 13.3849C33.0417 13.8216 33.023 14.2621 33.0117 14.6499C32.9743 16.0769 34.1464 16.9768 35.4385 17.1801C36.2324 17.967 37.4532 18.2155 38.5205 18.3322C38.7565 18.3585 38.9812 18.3774 39.1946 18.3887C39.3632 18.7426 39.6253 18.9873 39.9399 19.1454C39.7489 19.2019 39.5729 19.2735 39.3707 19.3563C38.7565 19.6123 37.9813 19.4052 37.3446 19.3638C35.9028 19.2697 34.5434 19.1869 33.4199 18.1364C32.6073 17.3796 32.2964 15.6627 32.2777 14.601C32.259 13.6183 32.5099 12.6657 32.7683 11.7207C32.7608 12.3419 32.8357 12.9556 33.1054 13.3849Z" fill="white"/>
<path d="M34.9778 14.932C35.3186 15.5833 35.959 16.7806 36.8315 16.8258C37.0637 16.8371 37.2697 16.8032 37.4644 16.7392C36.6742 17.1571 35.8878 17.0705 35.0003 16.7241C33.5921 16.1782 33.4086 14.9282 33.536 13.6029C33.5996 12.9402 33.8431 12.432 34.2026 12.0366C34.1164 13.0118 34.5471 14.1074 34.9815 14.9357L34.9778 14.932Z" fill="white"/>
<path d="M36.9739 13.9568C36.0677 13.6895 35.2288 13.2038 34.4798 12.5562C34.4648 12.5411 34.4423 12.5373 34.4236 12.5373C34.3637 12.1194 34.4873 11.837 34.712 11.63C35.1464 11.453 36.3335 11.9274 36.6257 12.0328C36.8541 12.1157 37.0788 12.2173 37.296 12.3303C36.8429 12.6541 36.708 13.4711 36.9777 13.9568H36.9739Z" fill="white"/>
<path d="M37.3446 12.4322C37.3521 12.4133 37.3596 12.3908 37.3671 12.3682C38.1648 12.7936 38.8726 13.4111 39.4156 14.1302C39.2208 14.1603 39.0261 14.1754 38.8314 14.1829C38.8201 14.1679 38.7977 14.1603 38.7714 14.1566C38.367 14.1265 37.9475 14.1227 37.5581 13.9909C37.2173 13.8742 37.1986 13.573 37.1649 13.2643C37.1461 13.0986 37.1611 12.9367 37.1836 12.771C37.1911 12.7183 37.251 12.2552 37.3147 12.4322C37.3184 12.4472 37.3409 12.4397 37.3446 12.4322Z" fill="white"/>
<path d="M36.386 14.1639C37.4346 14.5141 38.4232 14.484 39.4643 14.1978C39.528 14.2844 39.5879 14.371 39.6478 14.4576C39.2209 15.0751 38.6142 15.606 38.0862 16.1368C36.7829 17.4546 35.7755 15.9373 35.1576 14.8755C34.858 14.3597 34.6783 13.7987 34.5547 13.2227C34.9854 13.7196 35.9104 14.0058 36.3935 14.1639H36.386Z" fill="white"/>
<path d="M41.0447 11.9427C41.0035 12.2364 40.7788 12.5489 40.629 12.8012C40.3331 13.2869 40.0785 13.7914 39.7714 14.2695C39.7564 14.2206 39.734 14.1754 39.7152 14.1265C39.7227 14.1265 39.7265 14.1265 39.734 14.1227C39.7602 14.1152 39.7489 14.0775 39.7227 14.0813C39.7152 14.0813 39.7077 14.0813 39.6965 14.0851C39.2134 12.9254 37.8727 12.2138 36.7305 11.8411C36.4833 11.762 35.416 11.4307 34.8693 11.5022C35.049 11.3855 35.2662 11.2989 35.4909 11.2274C36.4946 11.0165 37.5918 10.9939 38.5917 10.9751C39.4044 11.009 40.5354 11.088 41.0372 11.6641C41.0522 11.7469 41.0559 11.8373 41.0409 11.9427H41.0447Z" fill="white"/>
<path d="M37.9551 10.4294C37.251 10.4068 35.7606 10.4633 34.9404 10.9979C34.7307 11.0732 34.5285 11.156 34.33 11.2577C33.6184 11.6191 33.3001 12.3496 33.1503 13.1214C33.008 12.3533 33.2252 11.269 33.3076 10.6741C33.3713 10.2072 33.4874 9.7479 33.6222 9.29609C33.9368 8.26822 34.9517 8.11385 35.8579 8.22681C37.648 8.44518 38.8427 9.56717 40.1384 10.6139C39.3932 10.4294 38.4944 10.4444 37.9514 10.4256L37.9551 10.4294Z" fill="white"/>
<path d="M32.9668 9.83797C32.9069 10.222 32.8245 10.7341 32.787 11.2649C32.2927 12.4848 31.8395 13.5955 31.7721 14.9811C31.7534 15.3877 31.7909 15.8244 31.8807 16.2574C31.2366 15.0413 30.8022 13.5654 30.585 12.274C30.2891 10.5044 31.9519 9.54053 33.2814 8.74609C33.1203 9.08119 33.023 9.46522 32.9668 9.83797Z" fill="white"/>
<path d="M35.2362 19.725C35.6781 19.8191 36.1238 19.8643 36.5432 19.8794C37.2248 19.902 37.9213 19.8869 38.6029 19.8493C39.2208 19.8154 39.7077 19.4803 40.2844 19.3071C40.2994 19.3033 40.3106 19.2958 40.3218 19.2883C41.5802 19.6196 43.4077 18.9419 44.3964 18.0947C43.6249 19.6083 41.9472 20.9148 40.4454 21.4419C38.528 22.1196 36.5657 21.0955 35.2362 19.725Z" fill="white"/>
<path d="M42.6962 13.9418C42.7262 13.682 42.7524 13.4222 42.7711 13.1549C42.8048 12.6127 42.8011 11.9312 42.4303 11.4869C42.1307 11.133 41.6776 11.0916 41.2432 11.0464C40.1646 9.28061 37.9439 7.92518 35.8242 7.71057C36.4084 7.47713 38.5019 7.4056 38.6741 7.41313C40.0186 7.45831 41.2956 7.72939 42.2206 8.77985C43.4377 10.1541 43.3179 12.2475 42.6962 13.9455V13.9418Z" fill="white"/>
<path d="M28.0085 12.1386C27.84 9.92478 30.0046 8.42252 31.746 7.3457C31.3228 8.1326 31.0569 9.03999 30.8734 9.91349C30.4203 10.3389 30.0795 10.8849 29.9185 11.6379C29.7574 12.3871 30.0121 13.2268 30.2855 13.976C30.0383 15.0001 29.9409 16.0242 30.0683 17.0144C28.7201 15.6477 28.1621 14.1078 28.0085 12.1386Z" fill="white"/>
<path d="M27.7651 20.3575C26.0985 18.5276 26.7389 15.5419 27.5141 13.3394C27.7688 15.0261 28.5103 16.6489 30.1169 17.3529C30.2854 18.2641 30.6524 19.1413 31.2853 19.9471C31.7721 20.5683 32.4537 21.0239 33.1765 21.359C31.3377 21.8145 29.1207 21.8484 27.7613 20.3537L27.7651 20.3575Z" fill="white"/>
<path d="M33.8543 24.2204C32.3751 24.1226 31.289 23.1361 30.3303 22.1045C31.3677 22.1572 32.4425 21.9049 33.315 21.4418C33.3188 21.4418 33.3225 21.4343 33.3263 21.4268C33.566 21.5322 33.8094 21.6263 34.0491 21.7054C34.6071 21.8899 35.1763 21.92 35.7493 21.8974C36.4271 22.5713 37.1723 23.0721 37.9962 23.4863C36.7791 23.9607 35.1313 24.2995 33.8543 24.2167V24.2204Z" fill="white"/>
<path d="M43.0632 23.7988C40.9997 25.1165 37.5881 23.3733 35.9515 21.8899C36.502 21.856 37.0563 21.7844 37.6031 21.7619C38.3371 22.1195 39.131 22.2852 39.9699 22.1045C41.1458 21.8522 42.288 21.2009 43.1606 20.3048C43.1905 20.3462 43.2617 20.3725 43.3066 20.3349C43.7672 19.9847 44.4301 19.7965 44.9282 19.4614C45.4899 19.0811 46.018 18.7046 46.5235 18.2754C45.8906 20.3575 44.9507 22.5939 43.0669 23.7988H43.0632Z" fill="white"/>
<path d="M48.5795 14.1716C48.4634 15.5383 47.1938 17.0331 46.3175 17.9744C45.7633 18.573 45.0854 19.021 44.4413 19.5105C44.108 19.7628 43.711 19.8757 43.3665 20.0866C43.9132 19.4653 44.3327 18.7424 44.5536 17.9518C44.7034 17.8049 44.8345 17.6543 44.9244 17.5037C45.7221 16.1859 45.6472 14.3975 45.4449 12.9216C45.3176 11.9879 44.7746 11.0956 44.1567 10.3199C44.1492 10.2936 44.1417 10.271 44.1379 10.2446C44.1379 10.2296 44.1155 10.2334 44.1117 10.2446C44.1117 10.2522 44.1117 10.2597 44.1117 10.2672C43.8608 9.9585 43.6024 9.66482 43.3515 9.3975C43.2055 9.06994 43.0219 8.74614 42.7935 8.43364C42.228 7.65051 41.2843 7.20246 40.2282 7.01421C38.8351 6.11435 37.1611 5.17685 35.4684 5.1279C37.236 4.48784 39.1384 4.38618 40.8649 5.34628C41.7936 5.86586 42.6362 6.84101 43.168 7.7371C43.6399 8.5353 43.7297 9.47281 44.1604 10.2597C44.1829 10.2974 44.269 10.2936 44.2578 10.2409C44.0743 9.30714 43.9881 8.51271 43.6811 7.68063C45.7558 9.28455 48.8266 11.3026 48.5795 14.1716Z" fill="white"/>
<path d="M45.9617 70.2452C45.8231 70.0909 45.6546 70.3544 45.7108 70.4937C46.6545 72.7377 47.4709 75.0156 47.999 77.3989C48.4708 79.5186 49.1936 81.868 49.1299 84.048C49.1299 84.0932 49.1824 84.0744 49.1861 84.0405C49.4483 81.8266 48.6843 79.4207 48.3622 77.237C48.0402 75.042 47.4897 71.9433 45.9617 70.2452Z" fill="#4B1E0A"/>
<path d="M32.4575 41.0203C32.6972 40.2033 33.7008 37.6807 31.9969 37.9819C29.9746 38.3433 27.8625 38.9608 25.9188 39.71H25.9113C24.7055 40.1317 23.3872 40.4631 22.3312 41.2236C22.1589 41.3478 22.054 41.6603 22.3162 41.7582C22.5409 41.8448 22.7618 41.8712 22.979 41.875C21.9454 42.6242 21.0991 43.6634 20.5036 44.7778C20.4549 44.872 20.4325 44.9849 20.4961 45.079L20.586 45.2146C20.6459 45.3087 20.7545 45.3388 20.8594 45.3275C21.2077 45.2936 21.496 45.1167 21.7807 44.9247C21.4474 45.3878 21.1815 45.8961 20.9081 46.4194C20.5298 47.1385 19.6311 48.43 19.9419 49.262C19.9981 49.4126 20.1816 49.4013 20.2827 49.3035C20.5074 49.0813 21.0729 48.1664 20.571 49.1905C20.4175 49.5105 20.2789 49.8456 20.1404 50.1732C19.6872 51.25 19.2453 52.3532 18.912 53.4714C18.8746 53.5956 19.0206 53.6484 19.1105 53.5881C20.5486 52.6431 21.9192 51.634 23.2299 50.5309C23.1363 50.7154 23.0652 50.9149 23.0502 51.1371C23.0352 51.314 23.2412 51.3178 23.3535 51.2613C24.522 50.6589 25.3421 49.8268 26.2109 48.9533C26.1473 49.1265 26.0986 49.311 26.0873 49.5143C26.0761 49.6988 26.312 49.7553 26.4356 49.6611C27.7314 48.686 28.4729 47.5527 29.2593 46.2839C29.338 46.7884 29.5739 47.1498 30.1806 46.6114C31.6973 45.2711 31.9295 42.8426 32.465 41.0165L32.4575 41.0203Z" fill="#4B1E0A"/>
<path d="M30.9894 43.814C30.776 44.4654 30.5251 45.1393 30.1393 45.7079C29.6075 46.491 29.9071 45.4556 29.9371 45.1092C29.9708 44.7176 29.4353 44.808 29.293 45.0339C28.4466 46.3705 27.7725 47.6883 26.7052 48.8216C26.7951 48.5994 26.9074 48.3773 26.9711 48.1589C27.0423 47.9142 26.7352 47.8765 26.5966 48.0083C25.578 48.991 24.7166 49.9775 23.5257 50.7342C23.6643 50.3577 23.9677 50.0189 24.1736 49.7026C24.301 49.5106 24.0276 49.424 23.8965 49.5407C22.5783 50.738 21.2039 51.796 19.7434 52.8088C18.7472 53.5016 19.6497 52.0708 19.837 51.604C20.2714 50.5046 20.7095 49.4165 21.2863 48.3773C21.3612 48.2418 21.2076 48.1326 21.0878 48.2154C20.8107 48.4112 20.5523 48.6183 20.2939 48.8291C20.3088 48.0987 21.0017 47.0369 21.2638 46.5701C21.7169 45.7606 22.0765 44.9322 22.8367 44.3487C22.9865 44.2357 22.994 43.9157 22.7393 43.9722C22.2225 44.0851 21.4361 44.3223 21.1589 44.8268C21.8068 43.6371 22.9266 42.3984 24.1849 41.8524C24.4545 41.7357 24.5968 41.2877 24.2073 41.2274C23.8853 41.1785 23.552 41.2387 23.2262 41.25C23.8104 40.8321 24.477 40.5196 25.1398 40.2485C25.1735 40.3125 25.2447 40.3501 25.357 40.32C26.5329 39.9774 27.7613 39.7703 28.926 39.4239C29.5701 39.2319 30.2067 39.0587 30.8658 38.9194C31.289 38.8291 32.3788 38.2605 32.1991 39.4164C31.9744 40.8697 31.4463 42.4172 30.9894 43.814Z" fill="white"/>
<path d="M57.7996 39.2056C58.4774 39.3599 58.5074 38.9947 58.3613 38.5806C59.4698 39.2131 60.4922 39.7628 61.8629 39.9661C61.9939 39.9849 62.1512 39.8494 62.0651 39.7139C61.9715 39.5632 61.8629 39.4465 61.743 39.3411C62.7541 39.6423 63.7129 39.9322 64.8363 39.9059C64.9412 39.9059 65.0947 39.8155 65.0124 39.6875C64.9112 39.5294 64.7764 39.4089 64.6304 39.3072C66.0684 39.6009 67.5102 39.8004 68.982 39.9209C69.0756 39.9285 69.1655 39.8306 69.0831 39.7515C68.3753 39.0437 67.5926 38.3923 66.8137 37.7673C66.5777 37.5791 66.3381 37.3795 66.0909 37.2025C65.297 36.634 66.0946 37.0934 66.353 37.1687C66.4729 37.2025 66.6115 37.1348 66.5927 36.9992C66.4916 36.2424 65.2857 35.64 64.709 35.2522C64.2896 34.9699 63.8814 34.6988 63.4432 34.4842C63.7391 34.5143 64.0274 34.5256 64.3046 34.4089C64.387 34.375 64.4581 34.3072 64.4656 34.2131L64.4768 34.0738C64.4843 33.9759 64.4244 33.9006 64.3495 33.8516C63.4432 33.2567 62.3871 32.82 61.3011 32.6807C61.4659 32.5866 61.6194 32.4774 61.7542 32.3192C61.9078 32.1347 61.7056 31.9427 61.5221 31.9201C60.4173 31.7808 59.2901 32.0745 58.2078 32.2515C58.2078 32.2515 58.204 32.2515 58.2003 32.2515C56.4289 32.4849 54.5864 32.8878 52.9124 33.4488C51.5043 33.9194 53.2869 35.4104 53.8 35.9262C54.9459 37.0821 56.1106 38.8215 57.7958 39.2056H57.7996Z" fill="#4B1E0A"/>
<path d="M53.3431 34.6084C52.7364 33.8102 53.7925 33.7914 54.1445 33.686C54.6987 33.5203 55.2492 33.3885 55.8147 33.268C56.8371 33.0497 57.8445 32.7033 58.8706 32.4774C58.968 32.4548 59.0054 32.3945 59.0054 32.3343C59.6159 32.2665 60.245 32.2289 60.8554 32.3042C60.6045 32.4322 60.3311 32.5188 60.1064 32.6882C59.8368 32.8953 60.1252 33.1739 60.3761 33.1513C61.5482 33.0459 62.8964 33.5203 63.8664 34.1528C63.4507 33.8855 62.7616 34.0286 62.3272 34.1566C62.11 34.2206 62.2486 34.454 62.4058 34.4804C63.2147 34.6084 63.8252 35.0866 64.4955 35.512C64.8813 35.7567 65.8362 36.2726 66.147 36.8185C65.8662 36.7658 65.5853 36.7168 65.2969 36.683C65.1734 36.6679 65.0985 36.8147 65.2108 36.8863C66.0684 37.4322 66.8399 38.0723 67.6151 38.7236C67.9446 38.9985 69.2067 39.7063 68.1768 39.5934C66.6638 39.4315 65.1996 39.198 63.7166 38.8366C63.5705 38.7989 63.402 38.9759 63.5743 39.07C63.8589 39.2244 64.2221 39.3562 64.4805 39.5821C63.2747 39.4992 62.2261 39.1114 61.0577 38.7876C60.9004 38.7425 60.6869 38.9006 60.8405 39.055C60.979 39.1943 61.1513 39.3147 61.3086 39.4465C60.0428 39.0324 59.0017 38.317 57.8183 37.6543C57.6198 37.5452 57.1779 37.6958 57.3651 37.9781C57.5299 38.2266 58.174 38.8855 57.455 38.5128C56.9307 38.2417 56.4701 37.8351 56.0432 37.4322C55.1294 36.5662 54.1033 35.6174 53.3431 34.6159V34.6084Z" fill="white"/>
<path d="M65.5141 12.4021C65.7388 11.7432 65.3793 11.6717 64.9561 11.7734C65.6976 10.7342 66.353 9.77034 66.7013 8.41868C66.735 8.2869 66.6151 8.12124 66.4728 8.18901C66.3155 8.26431 66.1882 8.3622 66.0721 8.47139C66.4766 7.49247 66.866 6.56626 66.9597 5.4405C66.9672 5.33508 66.8997 5.17318 66.7612 5.24095C66.5927 5.32755 66.4578 5.44426 66.3417 5.58357C66.7836 4.17543 67.1357 2.756 67.4128 1.29891C67.4315 1.20855 67.3416 1.10689 67.2555 1.17843C66.4803 1.81096 65.7538 2.52256 65.0535 3.23416C64.84 3.45254 64.6191 3.66715 64.4168 3.89682C63.769 4.63101 64.3082 3.88176 64.4094 3.6295C64.4543 3.51278 64.4056 3.36594 64.267 3.36971C63.5068 3.3923 62.784 4.53312 62.3384 5.06776C62.0163 5.45933 61.7018 5.83583 61.4434 6.25376C61.5033 5.96385 61.5482 5.67393 61.4621 5.38779C61.4359 5.30119 61.3759 5.22589 61.2823 5.20707L61.1475 5.18071C61.0501 5.16188 60.9715 5.2146 60.9116 5.28613C60.2262 6.12574 59.6832 7.13855 59.4286 8.20783C59.3537 8.03464 59.2638 7.86521 59.1215 7.71461C58.9567 7.54141 58.747 7.72214 58.702 7.90286C58.4474 8.99097 58.6122 10.1506 58.6758 11.25C58.6758 11.25 58.6758 11.2538 58.6758 11.2575C58.717 13.0497 58.9193 14.9398 59.2938 16.6717C59.6083 18.1288 61.2711 16.5061 61.8403 16.0505C63.1061 15.0302 64.9486 14.0512 65.5141 12.4059V12.4021Z" fill="#4B1E0A"/>
<path d="M60.4922 16.367C59.6383 16.8903 59.732 15.8324 59.6645 15.4671C59.5597 14.8949 59.4885 14.3301 59.4324 13.754C59.3275 12.7111 59.0916 11.6644 58.9755 10.614C58.9642 10.5161 58.9081 10.4709 58.8481 10.4634C58.8481 9.84588 58.8781 9.21335 59.0167 8.61094C59.114 8.87449 59.174 9.16064 59.3163 9.39784C59.4923 9.69151 59.7956 9.43172 59.8031 9.1757C59.8256 7.99346 60.436 6.69451 61.1663 5.79089C60.8554 6.17493 60.9266 6.88276 61.0052 7.33081C61.0427 7.55295 61.2936 7.44376 61.3348 7.28563C61.5483 6.4912 62.0875 5.93396 62.5781 5.3052C62.8627 4.94375 63.4732 4.0439 64.0461 3.7954C63.9637 4.07025 63.8851 4.34887 63.8214 4.63125C63.7952 4.75173 63.93 4.84209 64.0124 4.73667C64.6453 3.93847 65.3606 3.23817 66.0871 2.53033C66.3942 2.23289 67.2293 1.04313 67.0084 2.06346C66.6863 3.5582 66.2968 5.00023 65.7838 6.44225C65.7314 6.58532 65.8887 6.77358 66.001 6.61168C66.1845 6.34436 66.353 5.99421 66.6039 5.76077C66.3942 6.9543 65.8961 7.96334 65.4542 9.1004C65.3943 9.25476 65.5254 9.48443 65.6939 9.34889C65.8437 9.22464 65.9823 9.06651 66.1283 8.91967C65.5816 10.1396 64.7614 11.1072 63.9825 12.2179C63.8514 12.4061 63.9563 12.8617 64.2521 12.7073C64.5143 12.5718 65.2333 11.9957 64.7914 12.6735C64.4693 13.1667 64.0162 13.5884 63.5743 13.9724C62.6231 14.7932 61.5745 15.7156 60.4997 16.3708L60.4922 16.367Z" fill="white"/>
<path d="M54.1032 11.1143C54.0658 10.4178 53.7063 10.4893 53.3505 10.7416C53.6501 9.49533 53.901 8.35828 53.7212 6.9765C53.7025 6.84095 53.5303 6.73177 53.4254 6.84848C53.3093 6.9765 53.2269 7.1158 53.1595 7.26264C53.1707 6.20465 53.1857 5.19561 52.8562 4.11504C52.8262 4.01338 52.6989 3.88913 52.5978 4.00208C52.4742 4.14516 52.3955 4.30705 52.3394 4.47648C52.227 3.00434 52.0248 1.55478 51.7402 0.101463C51.7214 0.0111007 51.6016 -0.0491405 51.5492 0.0487515C51.0661 0.926015 50.6579 1.85975 50.2721 2.78596C50.1561 3.06834 50.0325 3.35073 49.9276 3.64064C49.5981 4.56308 49.8228 3.66699 49.8228 3.39591C49.8228 3.27166 49.7216 3.15494 49.5943 3.20765C48.8977 3.51262 48.6506 4.84546 48.4371 5.50811C48.2836 5.99005 48.1338 6.46068 48.0476 6.94261C47.9952 6.64893 47.9278 6.36655 47.7406 6.12935C47.6844 6.05782 47.602 6.01264 47.5084 6.0277L47.3736 6.05405C47.2799 6.07288 47.2238 6.15194 47.1938 6.23854C46.8717 7.2777 46.7444 8.41852 46.9054 9.50663C46.7706 9.37109 46.6246 9.2506 46.4373 9.16401C46.2201 9.06611 46.0928 9.31461 46.119 9.49533C46.2875 10.6023 46.8755 11.6113 47.3399 12.6091C47.3399 12.6091 47.3399 12.6128 47.3399 12.6166C48.0476 14.2657 48.9352 15.9374 49.9276 17.402C50.7627 18.6332 51.7027 16.5059 52.0585 15.8658C52.8524 14.4426 54.1969 12.8425 54.107 11.103L54.1032 11.1143Z" fill="#4B1E0A"/>
<path d="M50.9238 16.6789C50.3246 17.4847 50.0175 16.4681 49.8191 16.1556C49.5082 15.6661 49.2348 15.1691 48.9652 14.6533C48.4784 13.7271 47.8717 12.8461 47.3736 11.9123C47.3249 11.8257 47.2575 11.8032 47.2013 11.822C46.9692 11.2497 46.7632 10.651 46.6696 10.0411C46.8568 10.2482 47.0178 10.4891 47.2425 10.6586C47.5159 10.8619 47.6994 10.508 47.6095 10.2708C47.1901 9.1676 47.2762 7.73311 47.6095 6.61865C47.4672 7.09305 47.793 7.72181 48.0327 8.10585C48.1526 8.29787 48.3398 8.10209 48.3211 7.94395C48.2237 7.12693 48.5121 6.4078 48.7368 5.63973C48.8641 5.19921 49.0963 4.13369 49.5344 3.68565C49.5607 3.9718 49.5906 4.25794 49.6356 4.54409C49.6543 4.66833 49.8153 4.69846 49.8528 4.57044C50.1411 3.59152 50.5418 2.67284 50.9538 1.74287C51.126 1.3513 51.4593 -0.0681338 51.6354 0.963498C51.8938 2.46953 52.0698 3.95297 52.1297 5.48159C52.1334 5.6322 52.3506 5.74891 52.3918 5.55689C52.4592 5.24063 52.4855 4.85282 52.6315 4.54032C52.8824 5.72632 52.7963 6.84832 52.8075 8.0682C52.8075 8.23386 53.0172 8.39576 53.1221 8.20751C53.2157 8.03808 53.2869 7.83853 53.3655 7.64651C53.3131 8.98311 52.9124 10.1879 52.6053 11.5132C52.5529 11.7354 52.8188 12.1194 53.036 11.8634C53.227 11.6375 53.6801 10.8318 53.5228 11.63C53.4067 12.2098 53.1446 12.767 52.8749 13.2904C52.2982 14.4086 51.6691 15.6586 50.9163 16.6714L50.9238 16.6789Z" fill="white"/>
<path d="M27.282 13.1327C26.724 12.7147 26.548 13.0385 26.518 13.4753C25.7578 12.4474 25.0462 11.5287 23.8703 10.7832C23.758 10.7117 23.5595 10.7757 23.582 10.9301C23.6044 11.1033 23.6606 11.2576 23.728 11.4007C22.9266 10.7155 22.1664 10.0604 21.1253 9.62737C21.0279 9.58595 20.8519 9.60478 20.8744 9.75538C20.9043 9.94364 20.9755 10.1055 21.0728 10.2599C19.8745 9.40523 18.6349 8.63715 17.3429 7.92932C17.2605 7.88414 17.1406 7.94062 17.1818 8.04227C17.5451 8.97601 17.9982 9.89093 18.4589 10.7795C18.6012 11.0506 18.7397 11.3292 18.8933 11.589C19.3914 12.4324 18.8446 11.6869 18.6386 11.5137C18.545 11.4346 18.3877 11.4384 18.3503 11.5702C18.1405 12.3043 18.9981 13.3435 19.3726 13.9346C19.6423 14.3601 19.9082 14.778 20.2227 15.1507C19.9643 15.0039 19.7059 14.8759 19.4063 14.8684C19.3165 14.8684 19.2266 14.9022 19.1816 14.9851L19.1142 15.1056C19.0693 15.1922 19.0918 15.2863 19.1442 15.3616C19.7321 16.2727 20.5261 17.1048 21.4623 17.6733C21.2751 17.6922 21.0878 17.7261 20.9043 17.8164C20.6909 17.9218 20.7995 18.1779 20.953 18.2758C21.908 18.8518 23.0577 19.0438 24.1175 19.3187C24.1175 19.3187 24.1212 19.3187 24.125 19.3187C25.8364 19.8232 27.6864 20.2072 29.4428 20.3729C30.9183 20.516 29.8885 18.4264 29.6263 17.7449C29.0458 16.22 28.6788 14.1605 27.2895 13.1176L27.282 13.1327Z" fill="#4B1E0A"/>
<path d="M29.5065 19.1492C29.7424 20.1243 28.7688 19.7139 28.4018 19.6687C27.8288 19.5972 27.2708 19.4918 26.709 19.3713C25.6867 19.1567 24.6268 19.0626 23.5932 18.8517C23.4959 18.8329 23.436 18.8705 23.4135 18.927C22.8293 18.7388 22.2376 18.5166 21.7095 18.2041C21.9867 18.1891 22.2788 18.2192 22.5484 18.1552C22.878 18.0761 22.7244 17.7034 22.4847 17.6205C21.3725 17.2403 20.3276 16.2576 19.6948 15.2862C19.9644 15.7003 20.6572 15.8472 21.1066 15.9074C21.3313 15.9375 21.2976 15.6665 21.1665 15.5799C20.4774 15.1318 20.1142 14.4503 19.6685 13.7877C19.4139 13.4074 18.7473 12.549 18.6836 11.924C18.9195 12.0859 19.1592 12.2478 19.4064 12.3946C19.515 12.4586 19.6386 12.3532 19.5674 12.244C19.0019 11.3969 18.5563 10.497 18.1069 9.58586C17.9159 9.20182 17.0471 8.03841 17.9459 8.56176C19.2641 9.32607 20.5111 10.1356 21.7208 11.0655C21.8406 11.1559 22.0653 11.0655 21.9455 10.9074C21.747 10.6514 21.4661 10.3841 21.3201 10.0716C22.3874 10.6363 23.1925 11.4195 24.1325 12.1875C24.2598 12.2929 24.5182 12.2365 24.4396 12.0332C24.3684 11.8524 24.2598 11.6717 24.1662 11.4872C25.1549 12.3795 25.8215 13.4601 26.6379 14.5445C26.7764 14.729 27.2408 14.7666 27.1846 14.4353C27.136 14.1416 26.8102 13.2756 27.3157 13.9082C27.6865 14.3675 27.9449 14.9285 28.1733 15.4707C28.6602 16.6341 29.2182 17.918 29.5103 19.1454L29.5065 19.1492Z" fill="white"/>
<path d="M11.2911 28.8105C10.6207 28.6335 10.5758 28.9987 10.7106 29.4167C9.62455 28.7502 8.62091 28.1629 7.254 27.9182C7.12293 27.8956 6.96189 28.0273 7.04054 28.1629C7.12667 28.3135 7.23527 28.4377 7.35137 28.5469C6.35147 28.2118 5.404 27.8918 4.27677 27.8805C4.16816 27.8805 4.01462 27.9633 4.09326 28.0951C4.19063 28.257 4.31796 28.3813 4.46401 28.4867C3.03719 28.1478 1.59913 27.8993 0.134851 27.7299C0.0412275 27.7186 -0.0486513 27.8165 0.0262477 27.8993C0.711573 28.6298 1.4718 29.3037 2.22828 29.9551C2.46046 30.1508 2.69265 30.3579 2.93233 30.5424C3.70753 31.1373 2.92484 30.6516 2.66644 30.5688C2.5466 30.5311 2.40429 30.5914 2.41927 30.7307C2.49791 31.4912 3.68132 32.1313 4.24681 32.5379C4.65875 32.8316 5.05571 33.1215 5.49013 33.3474C5.19802 33.3097 4.90966 33.2872 4.62879 33.3926C4.54266 33.4265 4.47525 33.4905 4.46401 33.5846L4.44903 33.7239C4.4378 33.8218 4.49772 33.8971 4.57262 33.9536C5.45642 34.5786 6.50127 35.0492 7.58356 35.2262C7.41503 35.3128 7.25775 35.4182 7.11918 35.5688C6.95815 35.7458 7.15663 35.9453 7.33639 35.9754C8.4374 36.1524 9.57212 35.8964 10.6619 35.7533C10.6619 35.7533 10.6656 35.7533 10.6694 35.7533C12.4445 35.5801 14.302 35.2375 15.991 34.7329C17.414 34.3075 15.6801 32.76 15.1821 32.2254C14.0736 31.0319 12.9688 29.2585 11.2948 28.8142L11.2911 28.8105Z" fill="#4B1E0A"/>
<path d="M15.5977 33.5468C16.1782 34.3638 15.1221 34.3488 14.7663 34.4429C14.2083 34.5935 13.6503 34.7027 13.0848 34.8043C12.0587 34.9888 11.0364 35.3051 10.0028 35.4971C9.90539 35.5159 9.86419 35.5724 9.86419 35.6364C9.25377 35.6816 8.62087 35.7004 8.01419 35.6063C8.2651 35.4896 8.54597 35.4068 8.77441 35.2449C9.05154 35.0453 8.77441 34.7592 8.51976 34.7742C7.34384 34.842 6.01439 34.3224 5.06317 33.6598C5.46762 33.9421 6.16418 33.8179 6.60234 33.7049C6.81955 33.6485 6.69222 33.4075 6.53493 33.3774C5.72977 33.223 5.13807 32.726 4.47896 32.2817C4.10072 32.0257 3.16073 31.4798 2.87237 30.9225C3.15324 30.9865 3.43037 31.043 3.71499 31.0844C3.83857 31.1033 3.91721 30.9602 3.80487 30.8849C2.966 30.3088 2.21701 29.6462 1.46053 28.9685C1.14221 28.6823 -0.101116 27.9331 0.928745 28.0799C2.43421 28.2908 3.89474 28.5731 5.36276 28.9835C5.50507 29.0249 5.68483 28.8555 5.51256 28.7539C5.23544 28.592 4.87218 28.4489 4.62126 28.2155C5.82339 28.3359 6.86074 28.7614 8.01793 29.1191C8.17522 29.168 8.39243 29.0212 8.24638 28.8593C8.11156 28.7162 7.94304 28.592 7.78949 28.4527C9.04031 28.9082 10.0589 29.6575 11.2199 30.3578C11.4146 30.4745 11.8603 30.3352 11.6842 30.0528C11.527 29.8005 10.9053 29.1191 11.6093 29.5182C12.1224 29.8043 12.5718 30.226 12.9875 30.6439C13.8713 31.5362 14.8674 32.5189 15.594 33.5468H15.5977Z" fill="white"/>
<path d="M67.8098 25.8926C67.9222 25.7834 68.0345 25.6742 68.1431 25.5613C69.2441 24.3903 70.5773 22.4777 70.596 20.7872C70.641 16.9844 66.2856 14.5221 63.2672 12.9483C63.1586 12.7148 63.0425 12.4852 62.8964 12.2442C62.2373 11.1598 60.7768 10.2223 59.6496 9.72535C57.5674 8.80667 54.2905 9.12671 52.4106 10.6101C52.1072 10.6516 51.8039 10.7118 51.5043 10.8059C50.085 11.2464 49.1824 12.2442 48.5907 13.4565C47.2725 14.123 46.1078 15.0605 44.9769 16.013C44.0856 16.7623 43.4264 17.809 43.4527 19.0063C43.5088 21.7698 44.4226 25.0869 47.2425 26.1298C47.5159 27.248 48.0365 28.306 48.8828 29.2586C49.7929 30.2827 51.1448 30.8889 52.4368 31.2352C53.1446 31.4235 53.8524 31.4197 54.5564 31.3482C55.8447 32.489 57.2902 33.178 58.9305 33.7051C60.4023 34.1758 61.9377 34.5711 63.4469 34.0816C66.544 33.0801 67.7012 28.7917 67.8098 25.8926Z" fill="#4B1E0A"/>
<path d="M59.687 10.4331C60.8779 11.0054 61.9939 12.1575 62.7166 13.2268C63.3608 14.1831 63.5405 15.339 64.1322 16.284C64.1622 16.3292 64.2671 16.3179 64.2521 16.2539C63.9562 15.1093 63.7914 14.1304 63.3495 13.1214C66.0384 14.9587 69.9968 17.2291 69.8995 20.8097C69.8545 22.5115 68.3902 24.458 67.3754 25.6967C66.7312 26.4799 65.9223 27.0861 65.1584 27.7374C64.7614 28.0763 64.2783 28.2457 63.8663 28.5318C64.4992 27.7224 64.9674 26.7924 65.1808 25.7984C65.3568 25.6064 65.5066 25.4068 65.6077 25.2148C66.5028 23.5205 66.2781 21.3104 65.9186 19.4919C65.6901 18.3435 64.9524 17.278 64.1285 16.3594C64.1173 16.3292 64.106 16.2991 64.1023 16.269C64.1023 16.2502 64.0723 16.2577 64.0723 16.2728C64.0723 16.284 64.0723 16.2916 64.0723 16.2991C63.739 15.9339 63.3945 15.5913 63.0649 15.275C62.859 14.8797 62.608 14.4919 62.301 14.1191C61.5407 13.1929 60.3386 12.7072 59.0166 12.5491C57.2228 11.5325 55.0807 10.5009 52.9723 10.5649C55.1181 9.64245 57.47 9.37513 59.6795 10.4369L59.687 10.4331Z" fill="white"/>
<path d="M55.8671 19.4053C56.8857 19.8759 57.807 20.5837 58.5373 21.4422C58.2976 21.4911 58.0542 21.5288 57.8182 21.5514C57.8033 21.5363 57.7771 21.525 57.7433 21.525C57.2378 21.5175 56.7172 21.5438 56.2266 21.4121C55.796 21.2953 55.7473 20.9188 55.6874 20.5386C55.6537 20.3315 55.6574 20.1319 55.6761 19.9249C55.6836 19.8571 55.7211 19.281 55.811 19.4956C55.8184 19.5145 55.8447 19.5032 55.8484 19.4919C55.8559 19.4655 55.8634 19.4392 55.8709 19.4128L55.8671 19.4053Z" fill="white"/>
<path d="M58.5972 21.5177C58.6796 21.6194 58.7657 21.721 58.8443 21.8264C58.3575 22.6246 57.6422 23.3249 57.028 24.0252C55.5113 25.7534 54.1482 23.9462 53.3018 22.6773C52.8899 22.0599 52.6277 21.3784 52.433 20.6743C53.006 21.2617 54.1744 21.5441 54.7811 21.7059C56.103 22.0599 57.3314 21.9507 58.6009 21.5215L58.5972 21.5177Z" fill="white"/>
<path d="M58.9043 21.4082C58.9043 21.4082 58.9193 21.4044 58.9267 21.4006C58.9605 21.3893 58.9455 21.3442 58.9118 21.3517C58.9005 21.3517 58.893 21.3555 58.8818 21.3592C58.1965 19.9548 56.4813 19.1717 55.0357 18.799C54.7249 18.7199 53.373 18.3848 52.7026 18.5166C52.9161 18.3585 53.1782 18.2342 53.4554 18.1288C54.6875 17.7899 56.0431 17.6845 57.2865 17.5866C58.2976 17.5678 59.7057 17.5866 60.3685 18.2606C60.391 18.3622 60.406 18.4752 60.3948 18.6032C60.3648 18.9684 60.1101 19.375 59.9416 19.6988C59.6121 20.3238 59.3312 20.9677 58.9829 21.5851C58.9604 21.5249 58.9305 21.4684 58.9043 21.4119V21.4082Z" fill="white"/>
<path d="M54.9159 19.0402C55.208 19.1267 55.4926 19.2359 55.7698 19.3602C55.2305 19.7969 55.1256 20.8173 55.4926 21.3971C54.3504 21.1335 53.2719 20.5951 52.2944 19.8459C52.272 19.8308 52.2458 19.8233 52.2233 19.8271C52.1184 19.315 52.2495 18.9536 52.5154 18.6825C53.0434 18.4302 54.5489 18.931 54.9159 19.0402Z" fill="white"/>
<path d="M53.0922 22.7563C53.564 23.5394 54.4441 24.9776 55.5264 24.9664C55.8148 24.9664 56.0694 24.9061 56.3053 24.812C55.3541 25.388 54.3767 25.3391 53.2495 24.9776C51.4669 24.4054 51.1448 22.8692 51.2047 21.2163C51.2347 20.3918 51.5006 19.7404 51.9163 19.2246C51.8826 20.4407 52.4967 21.766 53.0922 22.76V22.7563Z" fill="white"/>
<path d="M56.9157 24.4691C56.9157 24.4691 56.927 24.4466 56.927 24.439C57.3352 24.1115 57.6872 23.6785 58.0617 23.2681C58.4287 22.8615 58.7395 22.4511 59.0241 22.0294C59.0691 22.0407 59.1215 22.0218 59.1103 21.9729C59.1103 21.9578 59.099 21.9428 59.0953 21.9277C59.5859 21.1822 59.9903 20.4029 60.4397 19.5444C60.6045 19.2319 60.7206 18.9345 60.758 18.6521C60.7918 18.6333 60.818 18.6032 60.818 18.5617C60.818 18.2982 60.7543 18.0798 60.6532 17.8916C60.7056 17.8727 60.7468 17.8351 60.7543 17.7861C61.7467 18.3358 61.8853 19.2131 61.8665 20.4405C61.8478 21.7658 61.6044 22.9782 61.0614 24.1868C59.8967 26.7922 56.4439 26.8788 54.2081 25.5347C55.2305 25.5422 56.2454 25.1996 56.912 24.4691H56.9157Z" fill="white"/>
<path d="M61.3685 25.2038C61.9976 24.1646 62.3272 23.0953 62.492 21.9696C63.754 20.0945 64.1472 17.9108 63.3608 15.8965C63.754 16.4838 64.151 17.0674 64.4955 17.6887C65.1659 18.8935 65.3306 20.1473 65.4168 21.5027C65.5291 23.261 65.3718 24.6955 64.1098 25.9982C62.9301 27.2181 60.0503 28.4304 58.7433 26.7248C59.8293 26.6797 60.6644 26.3672 61.3685 25.2038Z" fill="white"/>
<path d="M62.5894 20.9566C62.6081 20.6328 62.6231 20.309 62.6231 19.9739C62.6231 19.3 62.5707 18.4528 62.0763 17.9333C61.6794 17.5153 61.1139 17.4965 60.5709 17.4739C59.1029 15.3655 56.2529 13.8482 53.609 13.7352C54.3168 13.4039 56.9083 13.1591 57.1218 13.1554C58.792 13.1102 60.3949 13.3549 61.6232 14.5861C63.2335 16.2013 63.241 18.8068 62.5894 20.9566Z" fill="white"/>
<path d="M53.6876 14.3788C55.9233 14.5181 57.4887 15.8208 59.1739 17.0219C58.2377 16.8449 57.1217 16.9353 56.4476 16.9541C55.5713 16.9767 53.7288 17.1612 52.7476 17.8841C52.4929 17.9933 52.2458 18.1137 52.0098 18.2493C51.156 18.75 50.8114 19.6763 50.6841 20.6476C50.4519 19.7064 50.6392 18.3434 50.6991 17.6017C50.744 17.0181 50.8526 16.4383 50.9875 15.8698C51.2983 14.5746 52.5491 14.3073 53.6838 14.3788H53.6876Z" fill="white"/>
<path d="M50.2197 16.5892C50.1748 17.0711 50.1111 17.7112 50.0999 18.3738C49.5756 19.9213 49.0962 21.3332 49.115 23.0538C49.1187 23.5583 49.2011 24.0967 49.3434 24.6276C48.4521 23.1668 47.808 21.367 47.4447 19.7819C46.9466 17.6095 48.9427 16.2917 50.5306 15.2036C50.3583 15.6328 50.2647 16.1148 50.2197 16.5816V16.5892Z" fill="white"/>
<path d="M49.7104 22.5493C49.6168 21.3332 49.8565 20.1321 50.1074 18.9424C50.1411 19.7142 50.2796 20.4672 50.6504 20.9793C50.6055 21.5252 50.613 22.0749 50.6279 22.5531C50.6841 24.3264 52.2046 25.3543 53.8186 25.5087C54.8597 26.4274 56.3951 26.6457 57.7284 26.7097C58.0242 26.7248 58.3013 26.7323 58.5672 26.7286C58.8032 27.154 59.1439 27.4402 59.5484 27.6134C59.3162 27.6962 59.1027 27.7978 58.8593 27.9183C58.1141 28.2835 57.1404 28.084 56.3502 28.0765C54.5564 28.0652 52.8637 28.0614 51.3919 26.8415C50.3283 25.9605 49.8153 23.8596 49.7142 22.5418L49.7104 22.5493Z" fill="white"/>
<path d="M55.3915 28.7766C56.2379 28.754 57.1029 28.6825 57.9418 28.5883C58.7058 28.5017 59.2863 28.0499 59.9903 27.7901C60.009 27.7826 60.0203 27.7751 60.0352 27.7638C61.6194 28.0838 63.8364 27.1087 65.001 25.9829C64.1547 27.9182 62.1699 29.6614 60.3461 30.4257C58.0167 31.4084 55.5076 30.2826 53.7625 28.6787C54.3167 28.7615 54.8747 28.7879 55.3952 28.7728L55.3915 28.7766Z" fill="white"/>
<path d="M52.051 11.2691C54.3467 10.806 56.5936 11.6494 58.7133 12.5153C56.7921 12.361 54.6837 12.873 53.358 13.7277C52.9348 13.7277 52.5154 13.7541 52.1072 13.8294C51.3844 13.9649 50.9275 14.4016 50.6429 14.9626C49.6917 15.4032 48.7555 15.8437 48.0177 16.4687C48.6169 14.3113 49.7778 11.7284 52.051 11.2691Z" fill="white"/>
<path d="M44.2391 19.8121C43.8646 17.0786 46.4411 15.0568 48.5233 13.5884C48.0552 14.5974 47.7968 15.742 47.6283 16.8376C47.1002 17.3986 46.7145 18.1027 46.5685 19.0477C46.4261 19.989 46.8006 21.0131 47.1976 21.9205C46.9654 23.2082 46.9205 24.4883 47.1489 25.7044C45.3776 24.108 44.5686 22.2405 44.2391 19.8121Z" fill="white"/>
<path d="M53.4554 30.8059C51.8039 30.5875 50.2834 29.7291 49.1375 28.5506C47.3811 26.7434 47.441 24.6048 47.3923 22.3608C47.4335 22.455 47.4785 22.5491 47.5197 22.6432C48.0514 23.8443 48.6731 24.8458 49.6992 25.644C50.0288 26.397 50.4894 27.0822 51.0549 27.5717C51.7365 28.1628 52.6353 28.4904 53.5565 28.6561C54.3879 29.4919 55.3878 30.339 56.4851 30.8774C55.4739 30.8398 54.4665 30.9415 53.4554 30.8097V30.8059Z" fill="white"/>
<path d="M63.7653 33.1551C61.3011 34.9436 56.9457 33.0309 54.8074 31.3178C55.489 31.2387 56.1668 31.1069 56.8484 31.0354C57.7846 31.427 58.7845 31.5738 59.8069 31.2877C61.2449 30.8848 62.6156 29.9962 63.6305 28.8178C63.6717 28.8667 63.7578 28.8931 63.814 28.8479C64.3607 28.381 65.1696 28.0949 65.7613 27.6431C66.4317 27.131 67.0571 26.6265 67.6525 26.0542C67.0196 28.6822 66.0197 31.5249 63.769 33.1589L63.7653 33.1551Z" fill="white"/>
<path d="M32.2852 23.7729C32.259 23.6185 32.2327 23.4642 32.2028 23.3098C31.8695 21.7322 31.0606 19.5447 29.6899 18.5658C26.6041 16.367 22.1139 18.5696 19.1104 20.1697C18.8595 20.1283 18.6011 20.0944 18.324 20.0756C17.062 20.0041 15.4629 20.678 14.418 21.3294C12.4819 22.5304 10.8828 25.422 11.0288 27.8204C10.8865 28.0952 10.7667 28.3814 10.6731 28.6826C10.2274 30.1095 10.5308 31.4198 11.1861 32.5983C10.9802 34.0666 11.085 35.5651 11.2236 37.041C11.3322 38.2045 11.8115 39.3415 12.804 40.0042C15.0996 41.529 18.3315 42.6585 20.7882 40.9228C21.8592 41.3332 23.0202 41.5027 24.2822 41.3445C25.6341 41.1751 26.9037 40.4033 27.9186 39.5298C28.4728 39.0516 28.8735 38.4642 29.2181 37.8392C30.8846 37.4213 32.2702 36.6194 33.6334 35.5614C34.858 34.6126 36.0526 33.5659 36.5095 32.041C37.4495 28.9122 34.5996 25.5124 32.2889 23.7767L32.2852 23.7729Z" fill="#4B1E0A"/>
<path d="M15.0172 21.7021C16.1632 21.0432 17.7398 20.7722 19.0243 20.7835C20.1703 20.7948 21.2189 21.303 22.3311 21.3482C22.3836 21.3482 22.436 21.2541 22.3723 21.2315C21.2676 20.8249 20.3725 20.407 19.2977 20.1961C22.3274 19.0139 26.4393 17.0372 29.3117 19.1494C30.6786 20.1547 31.4426 22.474 31.8733 24.0139C32.1466 24.9928 32.1841 26.0019 32.2852 27.0071C32.3376 27.5267 32.1991 28.0237 32.1991 28.5245C31.8957 27.538 31.4014 26.6231 30.7086 25.8814C30.6524 25.6253 30.5738 25.3919 30.4726 25.1961C29.5963 23.4943 27.6602 22.4213 25.9675 21.6871C24.8964 21.2202 23.6081 21.2277 22.3873 21.3859C22.3573 21.3783 22.3274 21.3708 22.2974 21.3558C22.2824 21.3482 22.2712 21.3746 22.2824 21.3821C22.2899 21.3859 22.3012 21.3896 22.3087 21.3934C21.8218 21.4612 21.3425 21.5515 20.8968 21.6457C20.4549 21.593 19.998 21.5779 19.5149 21.6193C18.324 21.721 17.2417 22.4401 16.3617 23.4416C14.5117 24.349 12.4482 25.535 11.3022 27.3121C11.7666 25.0116 12.8826 22.9145 15.0097 21.6908L15.0172 21.7021Z" fill="white"/>
<path d="M20.1853 29.9626C21.1515 29.3865 22.2562 29.0288 23.3685 28.9121C23.2711 29.138 23.1625 29.3564 23.0502 29.571C23.0277 29.5748 23.0052 29.5898 22.9865 29.6199C22.6944 30.0341 22.421 30.4821 22.0278 30.8097C21.687 31.0996 21.3537 30.9264 21.0054 30.7608C20.8182 30.6704 20.6534 30.5537 20.4961 30.4219C20.4437 30.3767 19.9943 30.019 20.219 30.0642C20.2377 30.0642 20.2452 30.0416 20.2377 30.0303C20.2227 30.0077 20.204 29.9852 20.1853 29.9663V29.9626Z" fill="white"/>
<path d="M23.4696 28.9048C23.6006 28.8935 23.7317 28.8822 23.8628 28.8784C24.241 29.7369 24.4058 30.7233 24.6305 31.6307C25.181 33.8709 22.9303 33.9688 21.4061 33.9462C20.6684 33.9349 19.9606 33.7655 19.2715 33.5283C20.0766 33.389 20.9717 32.5833 21.451 32.1729C22.4921 31.2805 23.1026 30.2037 23.4696 28.9085V28.9048Z" fill="white"/>
<path d="M23.5557 28.5885C23.5557 28.5885 23.5594 28.5734 23.5632 28.5659C23.5707 28.532 23.5257 28.5207 23.5145 28.5508C23.5145 28.5621 23.507 28.5696 23.5033 28.5809C21.9641 28.3475 20.35 29.3226 19.2228 30.3053C18.9794 30.5162 17.942 31.4461 17.6649 32.0749C17.6574 31.8076 17.7023 31.5214 17.7735 31.2353C18.1967 30.0267 18.882 28.8407 19.5074 27.7601C20.0691 26.913 20.8818 25.7571 21.8105 25.5952C21.9079 25.6329 22.0053 25.6856 22.1064 25.7684C22.3873 26.0018 22.5782 26.4424 22.743 26.7662C23.0688 27.3949 23.4321 27.9936 23.7392 28.6299C23.6793 28.6148 23.6156 28.6073 23.5557 28.596V28.5885Z" fill="white"/>
<path d="M19.3502 30.5424C19.5861 30.3504 19.837 30.1772 20.0992 30.019C20.1516 30.7118 20.9231 31.3782 21.6084 31.4084C20.7433 32.2028 19.6872 32.7864 18.5188 33.1704C18.4926 33.1779 18.4739 33.1968 18.4626 33.2194C17.9833 33.016 17.7623 32.6998 17.6912 32.327C17.7848 31.7472 19.0506 30.7871 19.3502 30.5424Z" fill="white"/>
<path d="M21.3537 34.1645C22.2637 34.2209 23.9377 34.3075 24.5481 33.4077C24.7092 33.1667 24.8103 32.922 24.8627 32.6772C24.7953 33.7917 24.1998 34.5748 23.2599 35.3015C21.7769 36.4499 20.3388 35.8437 19.0168 34.8535C18.3577 34.3602 17.9757 33.7729 17.7922 33.1291C18.7659 33.8482 20.204 34.0967 21.3537 34.1645Z" fill="white"/>
<path d="M24.9263 31.9731C24.9263 31.9731 24.9151 31.9505 24.9076 31.9467C24.8739 31.4234 24.7204 30.885 24.593 30.3428C24.4694 29.8044 24.3084 29.3149 24.1287 28.8443C24.1624 28.8142 24.1773 28.7615 24.1287 28.7389C24.1137 28.7313 24.0987 28.7276 24.0837 28.7238C23.7542 27.8917 23.346 27.1161 22.9003 26.2539C22.7355 25.9414 22.5595 25.6741 22.3535 25.4821C22.3573 25.4444 22.3461 25.403 22.3161 25.3842C22.0989 25.2336 21.8854 25.162 21.6757 25.1357C21.6907 25.0792 21.6832 25.0265 21.6458 24.9926C22.6606 24.4843 23.4546 24.8684 24.4507 25.58C25.5218 26.348 26.3756 27.2404 27.0609 28.3774C28.5327 30.8247 26.6378 33.7276 24.2672 34.8119C24.8552 33.9723 25.1548 32.9369 24.9338 31.9693L24.9263 31.9731Z" fill="white"/>
<path d="M28.0609 28.7087C27.5665 27.598 26.8812 26.717 26.0536 25.9451C25.2372 23.8329 23.6755 22.2704 21.5784 21.7734C22.2824 21.781 22.9865 21.7847 23.6905 21.8525C25.0574 21.9843 26.1772 22.5566 27.3344 23.2569C28.8361 24.1643 29.9221 25.1093 30.2704 26.8939C30.5962 28.5619 29.9521 31.6342 27.8137 31.7471C28.3942 30.8209 28.6114 29.955 28.0609 28.7125V28.7087Z" fill="white"/>
<path d="M25.2784 25.2865C25.0237 25.0869 24.7653 24.8911 24.4919 24.6991C23.9414 24.3151 23.2149 23.8783 22.5109 23.9913C21.9416 24.0817 21.6083 24.5372 21.2788 24.974C18.7172 24.989 15.8561 26.4838 14.2607 28.611C14.3918 27.8392 15.6651 25.5576 15.7812 25.3768C16.6912 23.9725 17.8035 22.7827 19.5112 22.4702C21.7506 22.0598 23.8853 23.532 25.2746 25.2902L25.2784 25.2865Z" fill="white"/>
<path d="M14.8375 28.9087C16.2231 27.1391 18.178 26.5819 20.1216 25.874C19.4438 26.548 18.882 27.5231 18.515 28.0879C18.0357 28.8258 17.1369 30.4524 17.1744 31.676C17.1182 31.9471 17.077 32.2182 17.0545 32.493C16.9796 33.487 17.5414 34.2965 18.2641 34.9554C17.3616 34.6128 16.3542 33.679 15.7812 33.2122C15.3318 32.8432 14.9161 32.4215 14.5304 31.9885C13.6466 30.9945 14.1409 29.8085 14.8412 28.9124L14.8375 28.9087Z" fill="white"/>
<path d="M14.6727 33.0314C15.0397 33.3439 15.5266 33.758 16.0659 34.142C17.0358 35.4561 17.9159 36.6571 19.3352 37.621C19.7509 37.9034 20.2377 38.1443 20.7545 38.3288C19.0543 38.2347 17.2118 37.7452 15.7101 37.1466C13.6504 36.322 13.7065 33.9237 13.7178 31.9922C13.9724 32.38 14.3132 32.7301 14.669 33.0314H14.6727Z" fill="white"/>
<path d="M19.2603 36.8416C18.2117 36.2279 17.3653 35.3431 16.5339 34.4621C17.1856 34.8725 17.8784 35.185 18.5075 35.1737C18.927 35.5239 19.3801 35.8288 19.7846 36.0886C21.2676 37.0487 22.9752 36.3785 24.0201 35.1285C25.3645 34.7897 26.4131 33.6413 27.2258 32.5796C27.4055 32.3424 27.5703 32.1165 27.7164 31.8981C28.1995 31.947 28.6264 31.8266 28.9971 31.5894C28.9335 31.8266 28.896 32.0638 28.8548 32.3311C28.7275 33.1556 28.0122 33.8484 27.5591 34.4998C26.5292 35.9757 25.563 37.3763 23.7317 37.8996C22.4098 38.2761 20.395 37.5081 19.2603 36.8454V36.8416Z" fill="white"/>
<path d="M27.5853 35.6855C28.0459 34.9739 28.4804 34.2171 28.8811 33.4679C29.2443 32.7864 29.2031 32.0485 29.3941 31.3218C29.3979 31.303 29.3979 31.2879 29.3979 31.2728C30.5588 30.1433 31.0232 27.7563 30.7648 26.1523C31.8658 27.9521 32.1616 30.5838 31.7534 32.5304C31.2329 35.0153 28.8848 36.4498 26.5817 36.9845C26.9636 36.5741 27.3044 36.126 27.5891 35.6893L27.5853 35.6855Z" fill="white"/>
<path d="M11.3621 28.4943C12.2871 26.3332 14.257 24.9551 16.1669 23.6938C14.9498 25.1961 14.1708 27.233 14.1146 28.8106C13.8712 29.1607 13.6578 29.526 13.4892 29.9025C13.1896 30.5764 13.287 31.2014 13.5829 31.7586C13.4031 32.7978 13.2308 33.8181 13.3245 34.7858C11.8976 33.0651 10.4446 30.6329 11.3621 28.4943Z" fill="white"/>
<path d="M13.9125 39.8121C11.4633 38.5659 11.2723 35.2865 11.2573 32.73C11.8153 33.6901 12.6055 34.556 13.4107 35.3166C13.568 36.0734 13.9275 36.7925 14.6165 37.4476C15.3056 38.099 16.3579 38.3701 17.3241 38.5621C18.2454 39.4845 19.2678 40.2488 20.3913 40.7534C18.0769 41.3106 16.0921 40.919 13.9162 39.8121H13.9125Z" fill="white"/>
<path d="M28.1433 38.4378C27.0273 39.6803 25.4582 40.4484 23.8404 40.727C21.365 41.1524 19.646 39.8874 17.7848 38.6524C17.8859 38.6712 17.987 38.6901 18.0881 38.7089C19.3726 38.9499 20.5448 39.0063 21.7807 38.611C22.5858 38.7654 23.406 38.7767 24.1287 38.5846C25.0013 38.355 25.7803 37.8015 26.4356 37.1313C27.5928 36.9205 28.8549 36.5741 29.9184 35.9717C29.3117 36.7849 28.8249 37.6773 28.1433 38.4378Z" fill="white"/>
<path d="M35.929 31.2506C35.9927 34.304 31.9519 36.8229 29.3304 37.6135C29.6525 37.0036 29.9296 36.3673 30.2592 35.7649C31.1093 35.2114 31.7984 34.4697 32.1466 33.4607C32.6372 32.0412 32.6859 30.4034 32.3002 28.8936C32.3639 28.8899 32.435 28.8296 32.4275 28.7581C32.3564 28.039 32.5811 27.2069 32.5474 26.4651C32.5099 25.6218 32.45 24.816 32.3227 23.999C34.1127 26.0171 35.8691 28.4606 35.929 31.2506Z" fill="white"/>
<path d="M52.6278 27.067C52.5229 26.7997 52.4031 26.5286 52.257 26.25C51.5904 24.9887 50.0063 23.8366 48.7742 23.2003C46.4936 22.0294 42.7898 22.1687 40.5803 23.7086C40.2358 23.7312 39.8912 23.7839 39.5467 23.8667C37.9214 24.2658 36.8428 25.3276 36.0976 26.6491C34.5696 27.308 33.199 28.2831 31.8695 29.2771C30.821 30.0603 30.0083 31.1898 29.9559 32.5377C29.9259 33.3246 29.9559 34.1529 30.0645 34.9775C28.6264 38.0535 27.7276 42.0144 29.5851 45.0227C30.5476 46.5852 32.1654 47.3081 33.8731 47.4323C34.9666 49.1003 36.4084 50.3089 38.3745 50.8096C40.5428 51.3593 42.9658 50.3578 44.9057 49.4617C45.3738 49.6914 45.8607 49.9022 46.3662 50.098C47.9915 50.7268 49.6918 51.2727 51.4182 50.8247C54.9646 49.9098 56.5525 45.1658 56.8633 41.9165C56.9944 41.7998 57.1292 41.6868 57.2603 41.5626C58.5748 40.3201 60.2001 38.2606 60.3349 36.363C60.6345 32.0934 55.9046 29.0324 52.6203 27.0595L52.6278 27.067Z" fill="#4B1E0A"/>
<path d="M40.1309 24.4313C42.7411 24.0661 45.209 25.1655 47.5346 26.2799C45.385 25.9787 42.9808 26.4117 41.4341 27.2814C40.9585 27.2513 40.4829 27.2551 40.0222 27.3116C39.2021 27.4132 38.6591 27.8763 38.2996 28.4863C37.2023 28.9192 36.12 29.3485 35.2474 30.0036C36.0638 27.6165 37.5393 24.7927 40.1271 24.4313H40.1309Z" fill="white"/>
<path d="M52.5304 30.3916C52.9349 31.0768 53.3431 31.7621 53.6876 32.4812C54.3617 33.8818 54.4628 35.2975 54.4703 36.8299C54.4778 38.8103 54.2082 40.4142 52.7027 41.796C51.2946 43.0874 47.9803 44.2546 46.6246 42.2516C47.8492 42.2742 48.8079 41.9767 49.6768 40.7192C50.452 39.5935 50.8976 38.415 51.1523 37.1612C52.6952 35.1356 53.2832 32.7109 52.5342 30.3916H52.5304Z" fill="white"/>
<path d="M35.7081 43.6558C33.8544 41.5097 34.0604 39.1076 34.1577 36.585C34.1989 36.6941 34.2401 36.8033 34.2813 36.9088C34.7981 38.2943 35.431 39.4615 36.532 40.4253C36.8541 41.2913 37.326 42.0933 37.9251 42.6806C38.6517 43.3922 39.6403 43.8214 40.6627 44.0662C41.539 45.0639 42.6101 46.0805 43.8085 46.7582C42.6775 46.649 41.5353 46.698 40.408 46.4796C38.5693 46.1257 36.914 45.0564 35.7044 43.652L35.7081 43.6558Z" fill="white"/>
<path d="M49.3585 32.4513C49.4222 32.4325 49.4708 32.3949 49.4783 32.3384C50.5569 33.0274 50.6542 34.0176 50.5531 35.3956C50.4445 36.8828 50.0888 38.227 49.3997 39.5523C47.9167 42.4062 44.0294 42.2669 41.6064 40.6065C42.7561 40.6856 43.9208 40.3693 44.7185 39.5899C44.7297 39.5786 44.7335 39.5673 44.7335 39.556C45.2166 39.2172 45.6398 38.7541 46.0854 38.3136C46.5273 37.8806 46.9018 37.4401 47.2501 36.9883C47.2988 37.0033 47.3587 36.9883 47.3512 36.928C47.3512 36.9092 47.3437 36.8941 47.34 36.8753C47.9429 36.0696 48.4485 35.2224 49.0102 34.2849C49.2162 33.9423 49.366 33.6185 49.4296 33.306C49.4671 33.2872 49.5008 33.2533 49.5045 33.2119C49.5195 32.9144 49.4671 32.6659 49.366 32.4476L49.3585 32.4513Z" fill="white"/>
<path d="M37.9139 35.2525C37.8241 35.8624 37.7978 36.4799 37.7829 37.022C37.7267 39.0175 39.3707 40.2788 41.1758 40.5612C42.2843 41.6644 43.9957 42.0108 45.49 42.1727C45.8195 42.2103 46.1341 42.2367 46.43 42.248C46.6659 42.745 47.0291 43.0876 47.471 43.306C47.2052 43.385 46.958 43.4867 46.6771 43.6034C45.8158 43.9611 44.7335 43.6712 43.8459 43.6147C41.8312 43.4829 39.925 43.3662 38.3558 41.8941C37.2211 40.8323 36.783 38.4339 36.7567 36.9505C36.7305 35.5763 37.0826 34.2397 37.4458 32.9219C37.4346 33.7916 37.5394 34.6463 37.9177 35.2487L37.9139 35.2525Z" fill="white"/>
<path d="M40.5354 37.4137C41.011 38.3248 41.9061 40.0003 43.1269 40.0605C43.4527 40.0756 43.7411 40.0304 44.0107 39.94C42.906 40.5236 41.8087 40.4031 40.5654 39.9212C38.5993 39.1569 38.3409 37.4099 38.5169 35.5575C38.603 34.6313 38.9438 33.9197 39.4494 33.3662C39.3295 34.7292 39.9325 36.2653 40.5354 37.4174V37.4137Z" fill="white"/>
<path d="M43.3254 36.0507C42.0596 35.6779 40.8837 35.0002 39.8351 34.0928C39.8126 34.074 39.7826 34.0665 39.7564 34.0665C39.6703 33.4829 39.8463 33.0876 40.1609 32.7976C40.7713 32.5491 42.4303 33.2156 42.8385 33.3586C43.1606 33.4754 43.4714 33.6184 43.7785 33.7766C43.1456 34.2321 42.9584 35.3692 43.3291 36.0507H43.3254Z" fill="white"/>
<path d="M43.8459 33.9196C43.8571 33.8895 43.8684 33.8594 43.8796 33.833C44.9956 34.4317 45.9843 35.2901 46.7445 36.2991C46.4711 36.3368 46.1977 36.3631 45.9281 36.3744C45.9094 36.3556 45.8832 36.3443 45.842 36.3405C45.2765 36.2991 44.6885 36.2954 44.1418 36.1109C43.6661 35.949 43.6362 35.5273 43.5912 35.0943C43.5688 34.8609 43.5838 34.635 43.6212 34.4015C43.6324 34.3262 43.7148 33.6824 43.8047 33.9271C43.8122 33.946 43.8422 33.9384 43.8459 33.9271V33.9196Z" fill="white"/>
<path d="M42.5052 36.3402C43.9694 36.8297 45.3551 36.7883 46.8081 36.3892C46.898 36.5097 46.9804 36.6264 47.0628 36.7506C46.4636 37.6166 45.6135 38.3546 44.8757 39.1C43.0557 40.9412 41.6438 38.8214 40.7787 37.3342C40.3556 36.6113 40.1084 35.8282 39.9324 35.0225C40.5353 35.719 41.8311 36.1181 42.5014 36.3402H42.5052Z" fill="white"/>
<path d="M49.0213 33.2343C48.9652 33.6409 48.6506 34.0852 48.4371 34.4353C48.0252 35.1168 47.6657 35.8209 47.235 36.4911C47.2125 36.4233 47.1863 36.3555 47.1601 36.2915C47.1676 36.2915 47.1788 36.2878 47.1863 36.284C47.2238 36.2727 47.2088 36.22 47.1713 36.2275C47.1601 36.2275 47.1489 36.2275 47.1376 36.235C46.4636 34.6123 44.5836 33.6145 42.9882 33.0987C42.6437 32.9895 41.1457 32.5227 40.3855 32.6243C40.6364 32.4587 40.9398 32.3382 41.2543 32.2403C42.6587 31.9428 44.1904 31.9127 45.5947 31.8901C46.7332 31.9391 48.3136 32.052 49.0139 32.854C49.0326 32.9707 49.0401 33.0987 49.0213 33.2418V33.2343Z" fill="white"/>
<path d="M44.6998 31.1182C43.7149 31.0881 41.6289 31.1672 40.483 31.9164C40.1909 32.0218 39.9062 32.1385 39.6291 32.2779C38.633 32.7861 38.1873 33.8027 37.9776 34.8833C37.7791 33.8102 38.0825 32.2891 38.1986 31.4608C38.2884 30.8095 38.4495 30.1619 38.6405 29.5369C39.0786 28.1024 40.5017 27.884 41.7675 28.0384C44.2691 28.3471 45.9468 29.9134 47.7557 31.378C46.7146 31.1182 45.4563 31.1408 44.6998 31.1182Z" fill="white"/>
<path d="M37.7191 30.2863C37.6367 30.8247 37.5206 31.5401 37.4682 32.2818C36.7791 33.9874 36.1425 35.5423 36.0489 37.4776C36.0189 38.0461 36.0751 38.6561 36.1987 39.2622C35.2961 37.5604 34.6895 35.4934 34.3861 33.6899C33.9704 31.2163 36.2998 29.8684 38.1573 28.7539C37.9326 29.2245 37.7978 29.7592 37.7191 30.2825V30.2863Z" fill="white"/>
<path d="M40.8949 44.119C41.5128 44.2471 42.1382 44.3148 42.7224 44.3336C43.6737 44.3638 44.6511 44.3449 45.6023 44.2922C46.4674 44.2471 47.149 43.7764 47.9579 43.5317C47.9766 43.5242 47.9916 43.5166 48.0066 43.5053C49.7667 43.9722 52.3245 43.0234 53.7064 41.8374C52.6241 43.9571 50.2797 45.7794 48.1788 46.5212C45.4937 47.4662 42.7486 46.0355 40.8949 44.119Z" fill="white"/>
<path d="M51.3282 36.0279C51.3732 35.6664 51.4069 35.3012 51.4331 34.9247C51.4818 34.1679 51.4743 33.2116 50.9538 32.5941C50.5381 32.0971 49.9014 32.0369 49.2947 31.9767C47.7855 29.5068 44.681 27.6092 41.715 27.308C42.5314 26.9842 45.4599 26.8825 45.6996 26.89C47.5758 26.9503 49.3659 27.3343 50.6616 28.8027C52.3619 30.7266 52.1971 33.6559 51.3245 36.0279H51.3282Z" fill="white"/>
<path d="M30.7873 33.5093C30.5476 30.4144 33.581 28.3135 36.0152 26.8037C35.4235 27.9069 35.0528 29.1757 34.7944 30.3956C34.1615 30.9942 33.6821 31.7548 33.4574 32.809C33.2365 33.8557 33.5885 35.0342 33.9742 36.0771C33.6297 37.5116 33.4911 38.9423 33.6672 40.3241C31.7834 38.4114 30.997 36.2616 30.7873 33.5055V33.5093Z" fill="white"/>
<path d="M30.4465 45.004C28.1171 42.4475 29.0121 38.2683 30.0982 35.1885C30.4539 37.5492 31.4913 39.8158 33.742 40.806C33.9742 42.0786 34.4873 43.306 35.3786 44.4317C36.0601 45.2977 37.0151 45.9415 38.0262 46.4084C35.4534 47.0485 32.3526 47.0899 30.4502 45.004H30.4465Z" fill="white"/>
<path d="M38.9624 50.4068C36.8915 50.2713 35.3747 48.8895 34.0341 47.4475C35.4834 47.519 36.9888 47.1689 38.2097 46.5213C38.2172 46.5213 38.2209 46.5062 38.2284 46.5024C38.5617 46.6493 38.9025 46.7811 39.2395 46.8902C40.0222 47.15 40.8162 47.1915 41.6138 47.1613C42.5613 48.1026 43.6061 48.8067 44.7558 49.3865C43.0519 50.0491 40.7488 50.5235 38.9624 50.4068Z" fill="white"/>
<path d="M51.8414 49.8158C48.954 51.6607 44.1867 49.2171 41.8948 47.1463C42.6662 47.1012 43.4377 46.9995 44.2054 46.9656C45.2315 47.4664 46.3438 47.6998 47.5122 47.4475C49.1562 47.0936 50.7553 46.1825 51.9762 44.9287C52.0174 44.9852 52.1147 45.0228 52.1821 44.9739C52.8263 44.4844 53.755 44.2209 54.4478 43.7502C55.2343 43.2194 55.9683 42.6923 56.6798 42.0898C55.7923 45.004 54.4778 48.129 51.8414 49.812V49.8158Z" fill="white"/>
<path d="M59.5597 36.348C59.3949 38.2606 57.6235 40.3465 56.3989 41.668C55.62 42.5039 54.6763 43.1289 53.7737 43.8141C53.3056 44.168 52.7514 44.3224 52.272 44.6161C53.0397 43.7464 53.6239 42.7335 53.931 41.6304C54.1445 41.4271 54.3205 41.2162 54.4478 41.0054C55.5676 39.1643 55.459 36.6642 55.1781 34.5934C54.9983 33.287 54.2418 32.0407 53.3768 30.9526C53.3693 30.9187 53.3543 30.8848 53.3506 30.8472C53.3506 30.8284 53.3168 30.8321 53.3168 30.8472C53.3168 30.8585 53.3168 30.866 53.3168 30.8773C52.9686 30.4443 52.6016 30.0339 52.2533 29.6612C52.0473 29.2056 51.7927 28.75 51.4743 28.3095C50.6804 27.2177 49.3622 26.5889 47.8867 26.3253C45.9393 25.064 43.5987 23.7576 41.2281 23.6898C43.6998 22.7937 46.3625 22.6544 48.7742 23.9948C50.0737 24.7176 51.2534 26.0881 51.9911 27.3381C52.654 28.4526 52.7738 29.7666 53.3805 30.8698C53.4105 30.9225 53.5303 30.915 53.5153 30.8434C53.2607 29.5369 53.1371 28.4263 52.7102 27.2628C55.6125 29.5068 59.9042 32.3269 59.5597 36.3404V36.348Z" fill="white"/>
</g>
<defs>
<clipPath id="clip0_51_1275">
<rect width="76" height="157" fill="white"/>
</clipPath>
</defs>
</svg>
