<svg width="43" height="43" viewBox="0 0 43 43" fill="none" xmlns="http://www.w3.org/2000/svg">
<path d="M21.1805 0C9.48148 0 0 9.47955 0 21.1762C0 32.8729 9.48148 42.3524 21.1805 42.3524C32.8795 42.3524 42.361 32.8729 42.361 21.1762C42.361 9.47955 32.8795 0 21.1805 0ZM21.1805 41.4067C10.1195 41.4067 1.15562 32.4446 1.15562 21.3859C1.15562 10.3271 10.1195 1.36506 21.1805 1.36506C32.2415 1.36506 41.2054 10.3271 41.2054 21.3859C41.2054 32.4446 32.2415 41.4067 21.1805 41.4067Z" fill="#4B1E0A"/>
<path d="M21.1805 1.36505C10.1195 1.36505 1.15563 10.3271 1.15563 21.3859C1.15563 32.4446 10.1195 41.4067 21.1805 41.4067C32.2415 41.4067 41.2054 32.4446 41.2054 21.3859C41.2054 10.3271 32.2415 1.36505 21.1805 1.36505ZM21.1805 39.4974C10.9316 39.4974 2.61912 31.1911 2.61912 20.9442C2.61912 10.6974 10.9271 2.38661 21.1805 2.38661C31.4339 2.38661 39.7374 10.6929 39.7374 20.9442C39.7374 31.1955 31.4294 39.4974 21.1805 39.4974Z" fill="white"/>
<path d="M21.1805 2.38663C10.9316 2.38663 2.61912 10.6929 2.61912 20.9442C2.61912 31.1955 10.9271 39.4974 21.1805 39.4974C31.4339 39.4974 39.7374 31.1911 39.7374 20.9442C39.7374 10.6974 31.4294 2.38663 21.1805 2.38663ZM21.1805 38.6721C11.4893 38.6721 3.63196 30.8164 3.63196 21.1271C3.63196 11.4379 11.4893 3.58217 21.1805 3.58217C30.8717 3.58217 38.7246 11.4379 38.7246 21.1271C38.7246 30.8164 30.8672 38.6721 21.1805 38.6721Z" fill="#4B1E0A"/>
</svg>
