<svg width="40" height="46" viewBox="0 0 40 46" fill="none" xmlns="http://www.w3.org/2000/svg">
<path d="M19.6233 6.55763C18.7979 6.55763 17.9903 6.61116 17.1916 6.70931C17.3611 5.88849 17.3879 4.98737 17.3656 4.18886C17.3388 3.30559 17.5753 2.2751 17.4593 1.36061C17.4816 1.34722 17.4995 1.32938 17.5218 1.316C17.5218 1.29815 17.5128 1.28031 17.5039 1.26247C17.5084 1.25354 17.5173 1.24462 17.5218 1.2357C17.5619 1.19555 17.5753 1.1331 17.5128 1.10633C16.7766 0.802986 15.9646 0.615625 15.1481 0.472874C14.8536 0.392577 14.5591 0.307818 14.2601 0.240904C14.1888 0.22306 13.4436 -0.0222931 13.4079 0.0446214C13.4213 0.0178556 13.399 -0.0178322 13.3678 1.17067e-05C13.3187 0.0267775 13.3008 0.0446214 13.2741 0.0758481C10.8736 0.718227 8.33478 1.21339 6.15292 2.44016C6.13061 2.42678 6.09492 2.44016 6.09492 2.47139H6.09045C6.07261 2.48031 6.06814 2.50707 6.07261 2.52046C5.16685 3.53756 4.25216 4.63942 3.80598 5.94202C3.76582 6.058 3.88629 6.09815 3.97553 6.058C4.63588 6.72715 5.32747 7.37845 6.00568 8.02529C6.77312 8.75689 7.63872 9.35466 8.41063 10.064C3.32856 13.6193 0 19.5078 0 26.177C0 37.0126 8.78542 45.7963 19.6233 45.7963C30.4612 45.7963 39.2466 37.0126 39.2466 26.177C39.2466 15.3413 30.4612 6.55763 19.6233 6.55763ZM19.6233 44.9219C9.37885 44.9219 1.07085 36.6156 1.07085 26.3732C1.07085 16.1309 9.37439 7.82009 19.6233 7.82009C29.8722 7.82009 38.1758 16.1264 38.1758 26.3688C38.1758 36.6112 29.8722 44.9175 19.6233 44.9175V44.9219Z" fill="#4B1E0A"/>
<path d="M19.6233 7.8201C9.37439 7.8201 1.07085 16.1264 1.07085 26.3688C1.07085 36.6112 9.37439 44.9175 19.6233 44.9175C29.8722 44.9175 38.1758 36.6112 38.1758 26.3688C38.1758 16.1264 29.8678 7.8201 19.6233 7.8201ZM19.6233 43.151C10.1284 43.151 2.42726 35.4558 2.42726 25.9584C2.42726 16.461 10.124 8.77028 19.6233 8.77028C29.1226 8.77028 36.8194 16.4655 36.8194 25.9628C36.8194 35.4602 29.1226 43.1554 19.6233 43.1554V43.151Z" fill="white"/>
<path d="M19.6233 8.77026C10.124 8.77026 2.42726 16.4654 2.42726 25.9628C2.42726 35.4602 10.1284 43.1554 19.6233 43.1554C29.1182 43.1554 36.8194 35.4602 36.8194 25.9628C36.8194 16.4654 29.1182 8.77026 19.6233 8.77026ZM19.6233 42.3881C10.646 42.3881 3.36425 35.1123 3.36425 26.1323C3.36425 17.1524 10.6416 9.87658 19.6233 9.87658C28.6051 9.87658 35.8779 17.1524 35.8779 26.1323C35.8779 35.1123 28.6006 42.3881 19.6233 42.3881Z" fill="#4B1E0A"/>
<path d="M15.4292 6.23198C15.2061 5.90633 14.9785 5.58514 14.7465 5.26841C14.4252 4.83124 14.0727 4.26024 13.6355 3.90336C14.5502 3.43942 15.3667 2.77473 16.1966 2.18143C16.5045 1.96284 16.8346 1.75763 17.1648 1.55243C17.1604 1.57027 17.1559 1.58812 17.147 1.60596C16.3885 3.05577 15.8486 4.63942 15.4292 6.23198Z" fill="white"/>
<path d="M16.9328 2.4223C16.9239 2.46245 16.915 2.5026 16.9105 2.54275C16.8346 3.11375 16.7052 3.68029 16.5848 4.23792C16.4018 5.08996 16.3706 5.99554 16.2011 6.85204C16.1029 6.86989 16.0047 6.89219 15.9066 6.9145C15.8039 6.76728 15.6969 6.61561 15.5942 6.46394C15.7504 5.89293 15.8976 5.31747 16.0672 4.75093C16.3081 3.95687 16.6339 3.19405 16.9328 2.4223Z" fill="white"/>
<path d="M15.3265 6.62009C15.2908 6.77177 15.2507 6.91898 15.215 7.07065C14.8893 7.14649 14.5635 7.22232 14.2468 7.316C14.0817 6.37028 13.7916 5.45578 13.6221 4.51006C13.5953 4.36284 13.573 4.20671 13.5507 4.05504C13.5507 4.05058 13.5596 4.04166 13.5596 4.03719C13.5596 4.02381 13.5596 4.00597 13.5641 3.99258C13.9077 4.44314 14.1798 4.9963 14.51 5.46024C14.7822 5.84835 15.0365 6.25429 15.331 6.62455L15.3265 6.62009Z" fill="white"/>
<path d="M16.7142 1.57919C15.6969 2.30633 14.6528 3.0067 13.5998 3.60001C13.6132 3.19406 13.5686 2.77027 13.5329 2.37324C13.4927 1.9673 13.4927 1.55689 13.4793 1.15094C13.6355 1.1554 13.7872 1.16432 13.9389 1.17324C15.0008 1.258 16.1029 1.28477 17.1737 1.30707C17.0488 1.39183 16.8793 1.50336 16.7142 1.57473V1.57919Z" fill="white"/>
<path d="M16.5491 1.0528C15.5273 0.968045 14.4966 0.914513 13.4659 0.892209C13.457 0.691465 13.4347 0.490722 13.4079 0.289978C14.4609 0.526409 15.5005 0.798528 16.5491 1.0528Z" fill="white"/>
<path d="M13.3856 4.9829C13.4659 5.67881 13.6132 6.37026 13.8363 7.03495C13.399 6.69145 12.9662 6.33904 12.5111 6.01785C11.9935 5.64759 11.525 5.08997 10.9048 4.88922C11.7035 4.66617 12.4932 4.41636 13.2473 4.08179C13.2696 4.08179 13.2919 4.09071 13.3142 4.09517C13.3321 4.39852 13.3544 4.6974 13.3856 4.9829Z" fill="white"/>
<path d="M10.8379 4.93384C11.4581 5.33979 11.9712 5.94648 12.5691 6.39703C12.9707 6.70038 13.3856 7.11525 13.8229 7.4409C12.8413 7.74871 11.8909 8.12789 10.9807 8.57845C10.9807 8.14573 10.936 7.7041 10.9182 7.30261C10.887 6.51748 10.9628 5.71451 10.8423 4.93384H10.8379Z" fill="white"/>
<path d="M10.0124 9.07362C9.70011 9.2476 9.39224 9.4305 9.08883 9.62232C9.06652 9.63124 8.87912 9.66693 8.9059 9.65801C8.86574 9.67139 8.81666 9.66693 8.75865 9.65801C8.72296 9.12715 8.63372 8.58737 8.5891 8.05652C8.97729 8.2528 9.36101 8.44908 9.74473 8.64983C9.82504 8.79704 9.90982 8.94425 10.008 9.07808L10.0124 9.07362Z" fill="white"/>
<path d="M8.57126 7.73086C8.55341 7.1777 8.4374 6.58885 8.38386 6.02231C8.74081 6.68699 9.09776 7.34721 9.4324 8.01636C9.46363 8.08327 9.50825 8.16803 9.55287 8.26171C9.22715 8.08774 8.90143 7.92714 8.57126 7.76655C8.57126 7.75316 8.57126 7.73978 8.57126 7.7264V7.73086Z" fill="white"/>
<path d="M10.5211 8.80597C10.4497 8.76136 10.3739 8.72121 10.3025 8.68106C10.0035 8.26619 9.76257 7.73087 9.56625 7.3963C9.21823 6.79407 8.84789 6.21415 8.46863 5.63422C8.46863 5.63422 8.47756 5.63422 8.48202 5.6253C8.4954 5.60745 8.50879 5.58515 8.52217 5.56285C9.26285 5.33087 10.0258 5.13459 10.7843 4.92493C10.7977 5.61192 10.7754 6.30337 10.7754 6.99035C10.7754 7.53905 10.8245 8.10113 10.8245 8.65429C10.7263 8.70337 10.6237 8.75244 10.5256 8.80597H10.5211Z" fill="white"/>
<path d="M8.61141 5.42009C8.93713 4.92492 9.16915 4.33162 9.46809 3.82307C9.49486 3.774 9.77596 3.35913 10.1106 2.8595C10.3069 2.94426 10.4988 3.02455 10.6862 3.10039C11.3644 3.37697 12.0827 3.76061 12.81 3.9792C11.4625 4.54574 9.93659 4.75541 8.61141 5.42009Z" fill="white"/>
<path d="M13.2205 0.240906C13.2428 0.245367 13.2651 0.249828 13.2875 0.25875C13.2562 0.459493 13.2294 0.669159 13.2071 0.883285C12.5646 0.874363 11.9221 0.874363 11.2841 0.896668C11.2841 0.883285 11.2752 0.869902 11.2752 0.856519C11.9355 0.67808 12.5959 0.486259 13.2161 0.240906H13.2205Z" fill="white"/>
<path d="M11.2573 0.999273C11.8597 1.1331 12.5379 1.1331 13.1848 1.14648C13.1313 1.90485 13.1536 2.71228 13.3053 3.4305C13.051 3.04686 12.7208 2.68552 12.4397 2.35095C12.1988 2.06544 11.931 1.80671 11.6946 1.51675C11.5518 1.34277 11.4135 1.16433 11.2573 1.00373C11.2573 1.00373 11.2573 0.999273 11.2573 0.994812V0.999273Z" fill="white"/>
<path d="M11.6901 1.77993C11.9043 2.09219 12.1586 2.38216 12.3862 2.68104C12.6717 3.0513 12.9082 3.45725 13.2205 3.79628C13.2071 3.80074 13.1938 3.8052 13.1848 3.81413C12.2389 3.38141 11.2752 2.96654 10.3114 2.56059C10.6906 1.98513 11.0833 1.36952 11.2216 1.08401C11.3912 1.30706 11.5429 1.5658 11.6901 1.77993Z" fill="white"/>
<path d="M8.50433 1.72639C8.80327 1.61487 9.10222 1.50335 9.3967 1.40521C9.91874 1.22677 10.4586 1.07955 11.003 0.932343C11.0387 0.945725 11.0788 0.950186 11.1145 0.963569C11.1145 0.963569 11.1145 0.963569 11.119 0.96803C10.7442 1.44089 10.3872 1.94052 10.0571 2.45799C9.51717 2.23494 8.98175 2.00744 8.44186 1.79777C8.45971 1.771 8.48202 1.7487 8.49986 1.72639H8.50433Z" fill="white"/>
<path d="M8.37493 1.89145C8.8122 2.2394 9.34762 2.51598 9.87858 2.75688C9.33424 3.64015 8.84789 4.56357 8.42848 5.47807C8.42848 5.44684 8.41063 5.42007 8.36601 5.41561V5.40223C8.26339 4.29591 8.22323 3.2119 8.20092 2.11004C8.26339 2.03866 8.31693 1.96282 8.37493 1.89145Z" fill="white"/>
<path d="M8.25893 5.77697C8.21431 6.39258 8.34816 7.06173 8.3794 7.67288C7.02745 7.03942 5.63088 6.51749 4.21201 6.01786C4.21201 6.01786 4.21201 6.01786 4.20755 6.01786C4.56896 6.00448 4.93037 5.98218 5.29178 5.95095C6.21985 5.87957 7.27731 5.84835 8.192 5.65652C8.21431 5.69667 8.23662 5.74128 8.25893 5.78143V5.77697Z" fill="white"/>
<path d="M7.79042 5.41115C7.255 5.42453 6.74189 5.50037 6.18861 5.58513C5.56395 5.68327 4.93483 5.75464 4.31017 5.82156C4.98837 5.1658 5.66211 4.50557 6.34478 3.85873C6.46971 3.73829 6.59911 3.6223 6.7285 3.50632C6.83558 3.65353 6.94713 3.80074 7.04975 3.94349C7.39778 4.42082 7.73688 4.99182 8.14291 5.42007C8.02244 5.42453 7.90643 5.42453 7.79042 5.40669V5.41115Z" fill="white"/>
<path d="M8.12507 4.94723C7.79489 4.37177 7.36655 3.84091 6.92929 3.3279C7.33978 2.96656 7.75027 2.60522 8.11615 2.20374C8.06706 3.12269 8.02691 4.03273 8.12507 4.94723Z" fill="white"/>
<path d="M8.13399 1.86023C8.13399 1.86023 8.13399 1.90038 8.13399 1.91823C7.70119 2.35094 7.26393 2.77473 6.8222 3.19406C6.62142 2.96209 6.42063 2.73012 6.22431 2.50261C6.8579 2.32418 7.50041 2.09221 8.13845 1.85577L8.13399 1.86023Z" fill="white"/>
<path d="M6.09938 2.53831C6.09938 2.53831 6.09938 2.53831 6.10384 2.53831C6.1083 2.53831 6.11722 2.5383 6.12615 2.53384C6.26 2.82381 6.44294 3.10039 6.6348 3.37251C6.3537 3.6357 6.07707 3.90336 5.80043 4.17548C5.27393 4.69295 4.63142 5.22381 4.19862 5.8305C4.17185 5.8305 4.14508 5.83496 4.12277 5.83942C4.61357 4.66173 5.34978 3.56433 6.10384 2.53831H6.09938Z" fill="white"/>
<path d="M6.75974 8.10111C6.01014 7.65055 5.22931 6.86096 4.50203 6.25427C5.20701 6.58438 5.9566 6.82081 6.66604 7.13308C7.25054 7.39182 7.82166 7.67286 8.39278 7.95836C8.41509 8.49368 8.45525 9.02899 8.5311 9.56431C7.92875 9.22974 6.97391 8.23048 6.75974 8.10557V8.10111Z" fill="white"/>
</svg>
